M48
; DRILL file {KiCad 7.0.7} date Tue Apr 23 12:32:55 2024
; FORMAT={-:-/ absolute / inch / decimal}
; #@! TF.CreationDate,2024-04-23T12:32:55+02:00
; #@! TF.GenerationSoftware,Kicad,Pcbnew,7.0.7
; #@! TF.FileFunction,Plated,1,2,PTH
FMAT,2
INCH
; #@! TA.AperFunction,Plated,PTH,ComponentDrill
T1C0.0300
; #@! TA.AperFunction,Plated,PTH,ViaDrill
T2C0.0315
; #@! TA.AperFunction,Plated,PTH,ComponentDrill
T3C0.0315
; #@! TA.AperFunction,Plated,PTH,ComponentDrill
T4C0.0394
; #@! TA.AperFunction,Plated,PTH,ComponentDrill
T5C0.0433
; #@! TA.AperFunction,Plated,PTH,ComponentDrill
T6C0.0472
%
G90
G05
T1
X5.217Y-2.6808
X5.217Y-2.7595
X5.217Y-2.8383
X5.217Y-2.917
T2
X6.577Y-1.917
X6.737Y-1.397
X8.117Y-1.517
X8.117Y-1.917
T3
X4.817Y-2.607
X4.817Y-3.107
X4.977Y-2.607
X4.977Y-3.107
X5.1662Y-3.217
X5.2662Y-3.217
X5.657Y-2.157
X5.657Y-2.657
X5.837Y-2.157
X5.837Y-2.657
X6.017Y-2.157
X6.017Y-2.657
X6.197Y-2.157
X6.197Y-2.657
X6.397Y-1.577
X6.497Y-1.577
X6.597Y-1.577
X6.757Y-3.6662
X6.757Y-3.7662
X7.217Y-1.557
X7.217Y-1.657
X7.217Y-1.757
X7.757Y-1.657
X7.757Y-2.157
T4
X4.677Y-1.937
X4.777Y-1.937
X4.877Y-1.937
X4.977Y-1.937
X5.037Y-3.837
X5.077Y-1.937
X5.137Y-3.837
X5.177Y-1.937
X5.237Y-3.837
X5.277Y-1.937
X5.337Y-3.837
X5.377Y-1.937
X5.437Y-3.837
X5.477Y-1.937
X5.537Y-3.517
X5.537Y-3.837
X5.577Y-1.937
X5.637Y-3.517
X5.637Y-3.837
X5.737Y-1.937
X5.737Y-3.837
X5.837Y-1.937
X5.937Y-1.937
X5.937Y-3.837
X6.037Y-1.937
X6.037Y-3.837
X6.137Y-1.937
X6.137Y-3.837
X6.237Y-1.937
X6.237Y-3.837
X6.337Y-1.937
X6.337Y-3.837
X6.437Y-1.937
X6.437Y-3.837
X6.637Y-2.0272
X6.637Y-2.1272
X8.277Y-1.517
X8.277Y-1.617
X8.277Y-1.717
X8.277Y-1.817
X8.277Y-1.917
X8.277Y-2.017
X8.277Y-2.117
X8.277Y-2.217
X8.277Y-2.317
X8.277Y-2.417
X8.277Y-2.517
X8.277Y-2.617
X8.277Y-2.717
X8.277Y-2.817
X8.277Y-2.917
X8.277Y-3.017
T5
X4.8211Y-3.4598
X4.8211Y-3.637
X5.077Y-3.4598
X5.077Y-3.637
T6
X6.937Y-1.717
X6.937Y-2.517
T0
M30
