%TF.GenerationSoftware,KiCad,Pcbnew,7.0.7*%
%TF.CreationDate,2024-04-23T12:32:36+02:00*%
%TF.ProjectId,SHIELD LCD1,53484945-4c44-4204-9c43-44312e6b6963,rev?*%
%TF.SameCoordinates,Original*%
%TF.FileFunction,Copper,L2,Bot*%
%TF.FilePolarity,Positive*%
%FSLAX46Y46*%
G04 Gerber Fmt 4.6, Leading zero omitted, Abs format (unit mm)*
G04 Created by KiCad (PCBNEW 7.0.7) date 2024-04-23 12:32:36*
%MOMM*%
%LPD*%
G01*
G04 APERTURE LIST*
%TA.AperFunction,ComponentPad*%
%ADD10C,1.400000*%
%TD*%
%TA.AperFunction,ComponentPad*%
%ADD11R,1.700000X1.700000*%
%TD*%
%TA.AperFunction,ComponentPad*%
%ADD12O,1.700000X1.700000*%
%TD*%
%TA.AperFunction,ComponentPad*%
%ADD13C,1.600000*%
%TD*%
%TA.AperFunction,ComponentPad*%
%ADD14O,1.600000X1.600000*%
%TD*%
%TA.AperFunction,ComponentPad*%
%ADD15C,2.500000*%
%TD*%
%TA.AperFunction,ComponentPad*%
%ADD16R,1.500000X1.500000*%
%TD*%
%TA.AperFunction,ComponentPad*%
%ADD17C,1.500000*%
%TD*%
%TA.AperFunction,ComponentPad*%
%ADD18C,2.400000*%
%TD*%
%TA.AperFunction,ComponentPad*%
%ADD19O,2.400000X2.400000*%
%TD*%
%TA.AperFunction,ComponentPad*%
%ADD20R,1.524000X1.524000*%
%TD*%
%TA.AperFunction,ComponentPad*%
%ADD21C,1.524000*%
%TD*%
%TA.AperFunction,ComponentPad*%
%ADD22C,1.440000*%
%TD*%
%TA.AperFunction,ViaPad*%
%ADD23C,2.000000*%
%TD*%
%TA.AperFunction,Conductor*%
%ADD24C,1.400000*%
%TD*%
%TA.AperFunction,Conductor*%
%ADD25C,1.000000*%
%TD*%
%TA.AperFunction,Conductor*%
%ADD26C,0.800000*%
%TD*%
G04 APERTURE END LIST*
D10*
%TO.P,JP2,1,A*%
%TO.N,+5V*%
X171628000Y-95662000D03*
%TO.P,JP2,2,B*%
%TO.N,Net-(J6-Pin_15)*%
X171628000Y-93122000D03*
%TD*%
D11*
%TO.P,J1,1,Pin_1*%
%TO.N,unconnected-(J1-Pin_1-Pad1)*%
X127940000Y-97460000D03*
D12*
%TO.P,J1,2,Pin_2*%
%TO.N,/IOREF*%
X130480000Y-97460000D03*
%TO.P,J1,3,Pin_3*%
%TO.N,/~{RESET}*%
X133020000Y-97460000D03*
%TO.P,J1,4,Pin_4*%
%TO.N,+3V3*%
X135560000Y-97460000D03*
%TO.P,J1,5,Pin_5*%
%TO.N,+5V*%
X138100000Y-97460000D03*
%TO.P,J1,6,Pin_6*%
%TO.N,GND*%
X140640000Y-97460000D03*
%TO.P,J1,7,Pin_7*%
X143180000Y-97460000D03*
%TO.P,J1,8,Pin_8*%
%TO.N,/Vin*%
X145720000Y-97460000D03*
%TD*%
D11*
%TO.P,J3,1,Pin_1*%
%TO.N,/A0*%
X150800000Y-97460000D03*
D12*
%TO.P,J3,2,Pin_2*%
%TO.N,/A1*%
X153340000Y-97460000D03*
%TO.P,J3,3,Pin_3*%
%TO.N,/A2*%
X155880000Y-97460000D03*
%TO.P,J3,4,Pin_4*%
%TO.N,/A3*%
X158420000Y-97460000D03*
%TO.P,J3,5,Pin_5*%
%TO.N,/A4*%
X160960000Y-97460000D03*
%TO.P,J3,6,Pin_6*%
%TO.N,/A5*%
X163500000Y-97460000D03*
%TD*%
D11*
%TO.P,J2,1,Pin_1*%
%TO.N,Net-(J2-Pin_1)*%
X118796000Y-49200000D03*
D12*
%TO.P,J2,2,Pin_2*%
%TO.N,Net-(J2-Pin_2)*%
X121336000Y-49200000D03*
%TO.P,J2,3,Pin_3*%
%TO.N,/AREF*%
X123876000Y-49200000D03*
%TO.P,J2,4,Pin_4*%
%TO.N,GND*%
X126416000Y-49200000D03*
%TO.P,J2,5,Pin_5*%
%TO.N,/13*%
X128956000Y-49200000D03*
%TO.P,J2,6,Pin_6*%
%TO.N,/12*%
X131496000Y-49200000D03*
%TO.P,J2,7,Pin_7*%
%TO.N,/\u002A11*%
X134036000Y-49200000D03*
%TO.P,J2,8,Pin_8*%
%TO.N,/\u002A10*%
X136576000Y-49200000D03*
%TO.P,J2,9,Pin_9*%
%TO.N,/\u002A9*%
X139116000Y-49200000D03*
%TO.P,J2,10,Pin_10*%
%TO.N,/8*%
X141656000Y-49200000D03*
%TD*%
D11*
%TO.P,J4,1,Pin_1*%
%TO.N,/7*%
X145720000Y-49200000D03*
D12*
%TO.P,J4,2,Pin_2*%
%TO.N,/\u002A6*%
X148260000Y-49200000D03*
%TO.P,J4,3,Pin_3*%
%TO.N,/\u002A5*%
X150800000Y-49200000D03*
%TO.P,J4,4,Pin_4*%
%TO.N,/4*%
X153340000Y-49200000D03*
%TO.P,J4,5,Pin_5*%
%TO.N,/\u002A3*%
X155880000Y-49200000D03*
%TO.P,J4,6,Pin_6*%
%TO.N,/2*%
X158420000Y-49200000D03*
%TO.P,J4,7,Pin_7*%
%TO.N,/TX{slash}1*%
X160960000Y-49200000D03*
%TO.P,J4,8,Pin_8*%
%TO.N,/RX{slash}0*%
X163500000Y-49200000D03*
%TD*%
D11*
%TO.P,J6,1,Pin_1*%
%TO.N,GND*%
X210236000Y-38532000D03*
D12*
%TO.P,J6,2,Pin_2*%
%TO.N,+5V*%
X210236000Y-41072000D03*
%TO.P,J6,3,Pin_3*%
%TO.N,/POT*%
X210236000Y-43612000D03*
%TO.P,J6,4,Pin_4*%
%TO.N,/12*%
X210236000Y-46152000D03*
%TO.P,J6,5,Pin_5*%
%TO.N,GND*%
X210236000Y-48692000D03*
%TO.P,J6,6,Pin_6*%
%TO.N,/\u002A11*%
X210236000Y-51232000D03*
%TO.P,J6,7,Pin_7*%
%TO.N,unconnected-(J6-Pin_7-Pad7)*%
X210236000Y-53772000D03*
%TO.P,J6,8,Pin_8*%
%TO.N,unconnected-(J6-Pin_8-Pad8)*%
X210236000Y-56312000D03*
%TO.P,J6,9,Pin_9*%
%TO.N,unconnected-(J6-Pin_9-Pad9)*%
X210236000Y-58852000D03*
%TO.P,J6,10,Pin_10*%
%TO.N,unconnected-(J6-Pin_10-Pad10)*%
X210236000Y-61392000D03*
%TO.P,J6,11,Pin_11*%
%TO.N,/7*%
X210236000Y-63932000D03*
%TO.P,J6,12,Pin_12*%
%TO.N,/8*%
X210236000Y-66472000D03*
%TO.P,J6,13,Pin_13*%
%TO.N,/\u002A9*%
X210236000Y-69012000D03*
%TO.P,J6,14,Pin_14*%
%TO.N,/\u002A10*%
X210236000Y-71552000D03*
%TO.P,J6,15,Pin_15*%
%TO.N,Net-(J6-Pin_15)*%
X210236000Y-74092000D03*
%TO.P,J6,16,Pin_16*%
%TO.N,GND*%
X210236000Y-76632000D03*
%TD*%
D13*
%TO.P,R3,1*%
%TO.N,/\u002A3*%
X157404000Y-54788000D03*
D14*
%TO.P,R3,2*%
%TO.N,/A0*%
X157404000Y-67488000D03*
%TD*%
D13*
%TO.P,R1,1*%
%TO.N,/2*%
X197028000Y-54788000D03*
D14*
%TO.P,R1,2*%
%TO.N,Net-(Q1-B)*%
X197028000Y-42088000D03*
%TD*%
D10*
%TO.P,JP1,1,A*%
%TO.N,Net-(J8-Pin_3)*%
X133762000Y-81712000D03*
%TO.P,JP1,2,B*%
%TO.N,+5V*%
X131222000Y-81712000D03*
%TD*%
D15*
%TO.P,SW1,1,1*%
%TO.N,GND*%
X122456000Y-87880000D03*
%TO.P,SW1,2,2*%
X128956000Y-87880000D03*
%TO.P,SW1,3,K*%
%TO.N,/~{RESET}*%
X122456000Y-92380000D03*
%TO.P,SW1,4,A*%
X128956000Y-92380000D03*
%TD*%
D11*
%TO.P,J7,1,Pin_1*%
%TO.N,/2*%
X168580000Y-54031000D03*
D12*
%TO.P,J7,2,Pin_2*%
%TO.N,GND*%
X168580000Y-51491000D03*
%TD*%
D13*
%TO.P,R4,1*%
%TO.N,/4*%
X152832000Y-54788000D03*
D14*
%TO.P,R4,2*%
%TO.N,/A0*%
X152832000Y-67488000D03*
%TD*%
D13*
%TO.P,R5,1*%
%TO.N,/\u002A5*%
X148260000Y-54788000D03*
D14*
%TO.P,R5,2*%
%TO.N,/A0*%
X148260000Y-67488000D03*
%TD*%
D13*
%TO.P,R6,1*%
%TO.N,/\u002A6*%
X143688000Y-54788000D03*
D14*
%TO.P,R6,2*%
%TO.N,/A0*%
X143688000Y-67488000D03*
%TD*%
D16*
%TO.P,Q1,1,C*%
%TO.N,Net-(Q1-C)*%
X183312000Y-44628000D03*
D17*
%TO.P,Q1,2,B*%
%TO.N,Net-(Q1-B)*%
X183312000Y-42088000D03*
%TO.P,Q1,3,E*%
%TO.N,+5V*%
X183312000Y-39548000D03*
%TD*%
D13*
%TO.P,R7,1*%
%TO.N,Net-(J2-Pin_1)*%
X126416000Y-66218000D03*
D14*
%TO.P,R7,2*%
%TO.N,+5V*%
X126416000Y-78918000D03*
%TD*%
D18*
%TO.P,R2,1*%
%TO.N,Net-(Q1-C)*%
X176200000Y-43612000D03*
D19*
%TO.P,R2,2*%
%TO.N,/A0*%
X176200000Y-63932000D03*
%TD*%
D11*
%TO.P,J5,1,Pin_1*%
%TO.N,/A0*%
X143180000Y-89332000D03*
D12*
%TO.P,J5,2,Pin_2*%
%TO.N,GND*%
X140640000Y-89332000D03*
%TD*%
D13*
%TO.P,R8,1*%
%TO.N,Net-(J2-Pin_2)*%
X122352000Y-66218000D03*
D14*
%TO.P,R8,2*%
%TO.N,+5V*%
X122352000Y-78918000D03*
%TD*%
D20*
%TO.P,J8,1,Pin_1*%
%TO.N,Net-(J2-Pin_2)*%
X132512000Y-74092000D03*
D21*
%TO.P,J8,2,Pin_2*%
%TO.N,Net-(J2-Pin_1)*%
X132512000Y-72092000D03*
%TO.P,J8,3,Pin_3*%
%TO.N,Net-(J8-Pin_3)*%
X132512000Y-70092000D03*
%TO.P,J8,4,Pin_4*%
%TO.N,GND*%
X132512000Y-68092000D03*
%TD*%
D22*
%TO.P,RV1,1,1*%
%TO.N,+5V*%
X167564000Y-40056000D03*
%TO.P,RV1,2,2*%
%TO.N,/POT*%
X165024000Y-40056000D03*
%TO.P,RV1,3,3*%
%TO.N,GND*%
X162484000Y-40056000D03*
%TD*%
D23*
%TO.N,GND*%
X171120000Y-35484000D03*
X206172000Y-48692000D03*
X167056000Y-48692000D03*
X206172000Y-38532000D03*
%TD*%
D24*
%TO.N,+5V*%
X215316000Y-43104000D02*
X213284000Y-41072000D01*
X215316000Y-78664000D02*
X215316000Y-43104000D01*
X198318000Y-95662000D02*
X215316000Y-78664000D01*
X171628000Y-95662000D02*
X198318000Y-95662000D01*
X213284000Y-41072000D02*
X210236000Y-41072000D01*
D25*
%TO.N,/A0*%
X152832000Y-67488000D02*
X157404000Y-67488000D01*
D24*
%TO.N,Net-(J6-Pin_15)*%
X190658000Y-74092000D02*
X210236000Y-74092000D01*
X171628000Y-93122000D02*
X190658000Y-74092000D01*
%TO.N,+5V*%
X138100000Y-97460000D02*
X138100000Y-98984000D01*
X138100000Y-98984000D02*
X139878000Y-100762000D01*
X139878000Y-100762000D02*
X166528000Y-100762000D01*
X166528000Y-100762000D02*
X171628000Y-95662000D01*
D25*
%TO.N,GND*%
X210236000Y-48692000D02*
X207188000Y-48692000D01*
D26*
X140640000Y-97460000D02*
X143180000Y-97460000D01*
D25*
X207188000Y-48692000D02*
X206172000Y-48692000D01*
%TO.N,+5V*%
X138100000Y-94412000D02*
X132512000Y-88824000D01*
X128428000Y-78918000D02*
X131222000Y-81712000D01*
X126416000Y-78918000D02*
X128428000Y-78918000D01*
X168072000Y-39548000D02*
X183312000Y-39548000D01*
X132512000Y-85268000D02*
X131222000Y-83978000D01*
D24*
X204140000Y-41072000D02*
X210236000Y-41072000D01*
D25*
X122352000Y-78918000D02*
X126416000Y-78918000D01*
X138100000Y-97460000D02*
X138100000Y-94412000D01*
D24*
X200584000Y-37516000D02*
X204140000Y-41072000D01*
D25*
X132512000Y-88824000D02*
X132512000Y-85268000D01*
X167564000Y-40056000D02*
X168072000Y-39548000D01*
D24*
X185344000Y-37516000D02*
X200584000Y-37516000D01*
D25*
X131222000Y-83978000D02*
X131222000Y-81712000D01*
D24*
X183312000Y-39548000D02*
X185344000Y-37516000D01*
D25*
%TO.N,/A0*%
X172644000Y-67488000D02*
X176200000Y-63932000D01*
X143180000Y-67996000D02*
X143688000Y-67488000D01*
X148260000Y-67488000D02*
X152832000Y-67488000D01*
X150800000Y-97460000D02*
X150800000Y-96952000D01*
X143180000Y-89332000D02*
X143180000Y-67996000D01*
X143688000Y-67488000D02*
X148260000Y-67488000D01*
X150800000Y-96952000D02*
X143180000Y-89332000D01*
X157404000Y-67488000D02*
X172644000Y-67488000D01*
D26*
%TO.N,/12*%
X169596000Y-44628000D02*
X173660000Y-48692000D01*
X131496000Y-48184000D02*
X135052000Y-44628000D01*
X135052000Y-44628000D02*
X169596000Y-44628000D01*
X201600000Y-48692000D02*
X204140000Y-46152000D01*
X204140000Y-46152000D02*
X210236000Y-46152000D01*
X173660000Y-48692000D02*
X201600000Y-48692000D01*
X131496000Y-49200000D02*
X131496000Y-48184000D01*
%TO.N,/8*%
X161976000Y-57328000D02*
X186868000Y-57328000D01*
X201092000Y-60884000D02*
X206680000Y-66472000D01*
X141656000Y-49708000D02*
X138608000Y-52756000D01*
X138608000Y-52756000D02*
X138608000Y-57328000D01*
X138608000Y-57328000D02*
X141148000Y-59868000D01*
X206680000Y-66472000D02*
X210236000Y-66472000D01*
X141148000Y-59868000D02*
X159436000Y-59868000D01*
X159436000Y-59868000D02*
X161976000Y-57328000D01*
X186868000Y-57328000D02*
X190424000Y-60884000D01*
X141656000Y-49200000D02*
X141656000Y-49708000D01*
X190424000Y-60884000D02*
X201092000Y-60884000D01*
%TO.N,/7*%
X160960000Y-55804000D02*
X187862000Y-55804000D01*
X143180000Y-51740000D02*
X141656000Y-51740000D01*
X202616000Y-59360000D02*
X207188000Y-63932000D01*
X187862000Y-55804000D02*
X191418000Y-59360000D01*
X140640000Y-52756000D02*
X140640000Y-56820000D01*
X140640000Y-56820000D02*
X141656000Y-57836000D01*
X141656000Y-57836000D02*
X158928000Y-57836000D01*
X207188000Y-63932000D02*
X210236000Y-63932000D01*
X145720000Y-49200000D02*
X143180000Y-51740000D01*
X191418000Y-59360000D02*
X202616000Y-59360000D01*
X141656000Y-51740000D02*
X140640000Y-52756000D01*
X158928000Y-57836000D02*
X160960000Y-55804000D01*
%TO.N,/\u002A11*%
X134036000Y-47676000D02*
X135560000Y-46152000D01*
X168072000Y-46152000D02*
X173152000Y-51232000D01*
X173152000Y-51232000D02*
X210236000Y-51232000D01*
X134036000Y-49200000D02*
X134036000Y-47676000D01*
X135560000Y-46152000D02*
X168072000Y-46152000D01*
%TO.N,/\u002A10*%
X207188000Y-71552000D02*
X210236000Y-71552000D01*
X164008000Y-60376000D02*
X184328000Y-60376000D01*
X187884000Y-63932000D02*
X199568000Y-63932000D01*
X134036000Y-52248000D02*
X134036000Y-58852000D01*
X136576000Y-49200000D02*
X136576000Y-49708000D01*
X184328000Y-60376000D02*
X187884000Y-63932000D01*
X138608000Y-63424000D02*
X160960000Y-63424000D01*
X160960000Y-63424000D02*
X164008000Y-60376000D01*
X199568000Y-63932000D02*
X207188000Y-71552000D01*
X134036000Y-58852000D02*
X138608000Y-63424000D01*
X136576000Y-49708000D02*
X134036000Y-52248000D01*
%TO.N,/\u002A9*%
X139624000Y-61392000D02*
X160452000Y-61392000D01*
X139116000Y-49708000D02*
X136068000Y-52756000D01*
X200584000Y-62408000D02*
X207188000Y-69012000D01*
X162992000Y-58852000D02*
X185852000Y-58852000D01*
X207188000Y-69012000D02*
X210236000Y-69012000D01*
X160452000Y-61392000D02*
X162992000Y-58852000D01*
X185852000Y-58852000D02*
X189408000Y-62408000D01*
X189408000Y-62408000D02*
X200584000Y-62408000D01*
X136068000Y-57836000D02*
X139624000Y-61392000D01*
X139116000Y-49200000D02*
X139116000Y-49708000D01*
X136068000Y-52756000D02*
X136068000Y-57836000D01*
%TO.N,/4*%
X153340000Y-49200000D02*
X153340000Y-54280000D01*
X153340000Y-54280000D02*
X152832000Y-54788000D01*
%TO.N,/2*%
X158420000Y-50724000D02*
X161976000Y-54280000D01*
X161976000Y-54280000D02*
X196520000Y-54280000D01*
X196520000Y-54280000D02*
X197028000Y-54788000D01*
X158420000Y-49200000D02*
X158420000Y-50724000D01*
%TO.N,/\u002A6*%
X148260000Y-51232000D02*
X147752000Y-51740000D01*
X146228000Y-51740000D02*
X143688000Y-54280000D01*
X148260000Y-49200000D02*
X148260000Y-51232000D01*
X147752000Y-51740000D02*
X146228000Y-51740000D01*
X143688000Y-54280000D02*
X143688000Y-54788000D01*
%TO.N,/\u002A5*%
X150800000Y-49200000D02*
X150800000Y-52248000D01*
X150800000Y-52248000D02*
X148260000Y-54788000D01*
%TO.N,/\u002A3*%
X155880000Y-53264000D02*
X157404000Y-54788000D01*
X155880000Y-49200000D02*
X155880000Y-53264000D01*
%TO.N,/~{RESET}*%
X129028000Y-92308000D02*
X129900000Y-92308000D01*
X129900000Y-92308000D02*
X133020000Y-95428000D01*
X122456000Y-92380000D02*
X128956000Y-92380000D01*
X128956000Y-92380000D02*
X129028000Y-92308000D01*
X133020000Y-95428000D02*
X133020000Y-97460000D01*
D25*
%TO.N,Net-(Q1-C)*%
X178232000Y-43612000D02*
X179248000Y-44628000D01*
X179248000Y-44628000D02*
X183312000Y-44628000D01*
X176200000Y-43612000D02*
X178232000Y-43612000D01*
%TO.N,Net-(Q1-B)*%
X183312000Y-42088000D02*
X197028000Y-42088000D01*
D26*
%TO.N,/POT*%
X203632000Y-43612000D02*
X210236000Y-43612000D01*
X200584000Y-46660000D02*
X203632000Y-43612000D01*
X170612000Y-42596000D02*
X174676000Y-46660000D01*
X166040000Y-42596000D02*
X170612000Y-42596000D01*
X165024000Y-40056000D02*
X165024000Y-41580000D01*
X174676000Y-46660000D02*
X200584000Y-46660000D01*
X165024000Y-41580000D02*
X166040000Y-42596000D01*
D25*
%TO.N,Net-(J2-Pin_1)*%
X128480000Y-72092000D02*
X126416000Y-70028000D01*
X126416000Y-59868000D02*
X118796000Y-52248000D01*
X126416000Y-66218000D02*
X126416000Y-59868000D01*
X118796000Y-52248000D02*
X118796000Y-49200000D01*
X132512000Y-72092000D02*
X128480000Y-72092000D01*
X126416000Y-70028000D02*
X126416000Y-66218000D01*
%TO.N,Net-(J2-Pin_2)*%
X113140000Y-46728000D02*
X113716000Y-46152000D01*
X122352000Y-70028000D02*
X122352000Y-66218000D01*
X113140000Y-54212000D02*
X113140000Y-46728000D01*
X120828000Y-46152000D02*
X121336000Y-46660000D01*
X122352000Y-66218000D02*
X122352000Y-63424000D01*
X113716000Y-46152000D02*
X120828000Y-46152000D01*
X122352000Y-63424000D02*
X113140000Y-54212000D01*
X132512000Y-74092000D02*
X126416000Y-74092000D01*
X121336000Y-46660000D02*
X121336000Y-49200000D01*
X126416000Y-74092000D02*
X122352000Y-70028000D01*
%TO.N,Net-(J8-Pin_3)*%
X133762000Y-81712000D02*
X137084000Y-78390000D01*
X137084000Y-78390000D02*
X137084000Y-71552000D01*
X135624000Y-70092000D02*
X132512000Y-70092000D01*
X137084000Y-71552000D02*
X135624000Y-70092000D01*
%TD*%
%TA.AperFunction,Conductor*%
%TO.N,GND*%
G36*
X213268404Y-26943185D02*
G01*
X213289046Y-26959819D01*
X217236181Y-30906953D01*
X217269666Y-30968276D01*
X217272500Y-30994634D01*
X217272500Y-108004000D01*
X217252815Y-108071039D01*
X217200011Y-108116794D01*
X217148500Y-108128000D01*
X165598363Y-108128000D01*
X165531324Y-108108315D01*
X165495189Y-108072783D01*
X165069925Y-107434887D01*
X161642600Y-102162079D01*
X161622569Y-102095142D01*
X161641906Y-102028001D01*
X161694472Y-101981974D01*
X161746567Y-101970500D01*
X166456650Y-101970500D01*
X166463589Y-101970889D01*
X166500774Y-101975079D01*
X166500776Y-101975078D01*
X166500777Y-101975079D01*
X166516599Y-101974012D01*
X166566623Y-101970639D01*
X166570777Y-101970500D01*
X166582271Y-101970500D01*
X166582276Y-101970500D01*
X166622832Y-101966849D01*
X166690997Y-101962253D01*
X166717806Y-101960447D01*
X166717808Y-101960446D01*
X166717815Y-101960446D01*
X166721595Y-101959493D01*
X166740775Y-101956234D01*
X166744658Y-101955885D01*
X166753286Y-101953504D01*
X166836417Y-101930561D01*
X166852359Y-101926544D01*
X166928756Y-101907294D01*
X166932297Y-101905685D01*
X166950595Y-101899049D01*
X166954353Y-101898013D01*
X167040121Y-101856709D01*
X167126815Y-101817331D01*
X167130014Y-101815114D01*
X167146836Y-101805318D01*
X167150344Y-101803629D01*
X167227382Y-101747657D01*
X167305629Y-101693448D01*
X167308372Y-101690703D01*
X167323184Y-101678053D01*
X167326333Y-101675766D01*
X167392144Y-101606932D01*
X172092257Y-96906819D01*
X172153581Y-96873334D01*
X172179939Y-96870500D01*
X198246650Y-96870500D01*
X198253589Y-96870889D01*
X198290774Y-96875079D01*
X198290776Y-96875078D01*
X198290777Y-96875079D01*
X198306599Y-96874012D01*
X198356623Y-96870639D01*
X198360777Y-96870500D01*
X198372271Y-96870500D01*
X198372276Y-96870500D01*
X198412832Y-96866849D01*
X198480997Y-96862253D01*
X198507806Y-96860447D01*
X198507808Y-96860446D01*
X198507815Y-96860446D01*
X198511595Y-96859493D01*
X198530775Y-96856234D01*
X198534658Y-96855885D01*
X198626417Y-96830561D01*
X198718756Y-96807294D01*
X198722297Y-96805685D01*
X198740595Y-96799049D01*
X198744353Y-96798013D01*
X198830121Y-96756709D01*
X198916815Y-96717331D01*
X198920014Y-96715114D01*
X198936836Y-96705318D01*
X198940344Y-96703629D01*
X199017382Y-96647657D01*
X199095629Y-96593448D01*
X199098372Y-96590703D01*
X199113184Y-96578053D01*
X199116333Y-96575766D01*
X199182144Y-96506932D01*
X216120092Y-79568983D01*
X216125252Y-79564371D01*
X216154525Y-79541028D01*
X216197946Y-79491327D01*
X216200779Y-79488296D01*
X216208917Y-79480160D01*
X216235002Y-79448914D01*
X216297649Y-79377210D01*
X216299646Y-79373868D01*
X216310916Y-79357984D01*
X216311007Y-79357874D01*
X216313404Y-79355004D01*
X216360370Y-79272231D01*
X216409222Y-79190468D01*
X216410590Y-79186823D01*
X216418844Y-79169180D01*
X216420757Y-79165808D01*
X216420758Y-79165807D01*
X216427659Y-79146087D01*
X216452193Y-79075971D01*
X216485658Y-78986805D01*
X216486354Y-78982966D01*
X216491318Y-78964158D01*
X216492606Y-78960479D01*
X216507500Y-78866441D01*
X216524500Y-78772767D01*
X216524500Y-78768873D01*
X216526027Y-78749474D01*
X216526637Y-78745624D01*
X216524500Y-78650406D01*
X216524499Y-43175351D01*
X216524889Y-43168403D01*
X216525352Y-43164297D01*
X216529079Y-43131226D01*
X216524639Y-43065376D01*
X216524500Y-43061221D01*
X216524500Y-43049732D01*
X216524500Y-43049724D01*
X216520849Y-43009167D01*
X216514446Y-42914185D01*
X216514445Y-42914180D01*
X216513495Y-42910408D01*
X216510234Y-42891217D01*
X216509885Y-42887346D01*
X216509885Y-42887342D01*
X216484561Y-42795582D01*
X216478890Y-42773076D01*
X216461297Y-42703253D01*
X216461295Y-42703249D01*
X216461294Y-42703244D01*
X216459678Y-42699687D01*
X216453048Y-42681397D01*
X216452013Y-42677647D01*
X216410709Y-42591878D01*
X216371331Y-42505185D01*
X216371328Y-42505180D01*
X216371327Y-42505178D01*
X216369110Y-42501978D01*
X216359318Y-42485163D01*
X216357629Y-42481656D01*
X216331463Y-42445642D01*
X216301657Y-42404616D01*
X216247454Y-42326379D01*
X216247451Y-42326375D01*
X216247448Y-42326371D01*
X216244696Y-42323618D01*
X216232057Y-42308821D01*
X216229766Y-42305667D01*
X216205678Y-42282637D01*
X216160932Y-42239855D01*
X214188994Y-40267917D01*
X214184357Y-40262728D01*
X214171250Y-40246293D01*
X214161028Y-40233475D01*
X214152698Y-40226197D01*
X214111327Y-40190051D01*
X214108278Y-40187201D01*
X214100167Y-40179089D01*
X214087256Y-40168310D01*
X214068908Y-40152991D01*
X214046056Y-40133026D01*
X213997212Y-40090352D01*
X213993861Y-40088350D01*
X213977996Y-40077093D01*
X213974999Y-40074591D01*
X213892198Y-40027609D01*
X213892197Y-40027608D01*
X213810468Y-39978778D01*
X213810464Y-39978776D01*
X213810463Y-39978775D01*
X213806811Y-39977405D01*
X213789199Y-39969165D01*
X213785813Y-39967244D01*
X213785807Y-39967241D01*
X213785805Y-39967240D01*
X213785802Y-39967239D01*
X213785800Y-39967238D01*
X213695932Y-39935792D01*
X213606804Y-39902341D01*
X213606801Y-39902340D01*
X213602968Y-39901645D01*
X213584170Y-39896684D01*
X213580479Y-39895392D01*
X213486420Y-39880495D01*
X213392771Y-39863500D01*
X213392767Y-39863500D01*
X213388872Y-39863500D01*
X213369475Y-39861973D01*
X213365630Y-39861364D01*
X213365628Y-39861363D01*
X213365623Y-39861363D01*
X213365617Y-39861363D01*
X213365616Y-39861363D01*
X213270406Y-39863500D01*
X211597852Y-39863500D01*
X211530813Y-39843815D01*
X211485058Y-39791011D01*
X211475114Y-39721853D01*
X211498586Y-39665188D01*
X211529352Y-39624089D01*
X211529354Y-39624086D01*
X211579596Y-39489379D01*
X211579598Y-39489372D01*
X211585999Y-39429844D01*
X211586000Y-39429827D01*
X211586000Y-38782000D01*
X210849347Y-38782000D01*
X210782308Y-38762315D01*
X210736553Y-38709511D01*
X210726609Y-38640353D01*
X210730369Y-38623067D01*
X210736000Y-38603888D01*
X210736000Y-38460111D01*
X210730369Y-38440933D01*
X210730370Y-38371064D01*
X210768145Y-38312286D01*
X210831701Y-38283262D01*
X210849347Y-38282000D01*
X211586000Y-38282000D01*
X211586000Y-37634172D01*
X211585999Y-37634155D01*
X211579598Y-37574627D01*
X211579596Y-37574620D01*
X211529354Y-37439913D01*
X211529350Y-37439906D01*
X211443190Y-37324812D01*
X211443187Y-37324809D01*
X211328093Y-37238649D01*
X211328086Y-37238645D01*
X211193379Y-37188403D01*
X211193372Y-37188401D01*
X211133844Y-37182000D01*
X210486000Y-37182000D01*
X210486000Y-37919698D01*
X210466315Y-37986737D01*
X210413511Y-38032492D01*
X210344355Y-38042436D01*
X210271766Y-38032000D01*
X210271763Y-38032000D01*
X210200237Y-38032000D01*
X210200233Y-38032000D01*
X210127645Y-38042436D01*
X210058487Y-38032492D01*
X210005684Y-37986736D01*
X209986000Y-37919698D01*
X209986000Y-37182000D01*
X209338155Y-37182000D01*
X209278627Y-37188401D01*
X209278620Y-37188403D01*
X209143913Y-37238645D01*
X209143906Y-37238649D01*
X209028812Y-37324809D01*
X209028809Y-37324812D01*
X208942649Y-37439906D01*
X208942645Y-37439913D01*
X208892403Y-37574620D01*
X208892401Y-37574627D01*
X208886000Y-37634155D01*
X208886000Y-37634172D01*
X208885999Y-38281999D01*
X208886000Y-38282000D01*
X209622653Y-38282000D01*
X209689692Y-38301685D01*
X209735447Y-38354489D01*
X209745391Y-38423647D01*
X209741631Y-38440933D01*
X209736000Y-38460111D01*
X209736000Y-38603888D01*
X209741631Y-38623067D01*
X209741630Y-38692936D01*
X209703855Y-38751714D01*
X209640299Y-38780738D01*
X209622653Y-38782000D01*
X208886000Y-38782000D01*
X208886000Y-39429844D01*
X208892401Y-39489372D01*
X208892403Y-39489379D01*
X208942645Y-39624086D01*
X208942647Y-39624089D01*
X208973414Y-39665188D01*
X208997832Y-39730652D01*
X208982981Y-39798926D01*
X208933576Y-39848331D01*
X208874148Y-39863500D01*
X204691939Y-39863500D01*
X204624900Y-39843815D01*
X204604258Y-39827181D01*
X201488994Y-36711917D01*
X201484357Y-36706728D01*
X201461026Y-36677473D01*
X201411327Y-36634051D01*
X201408278Y-36631201D01*
X201400167Y-36623089D01*
X201368907Y-36596990D01*
X201297212Y-36534352D01*
X201293861Y-36532350D01*
X201277996Y-36521093D01*
X201274999Y-36518591D01*
X201192198Y-36471609D01*
X201173887Y-36460669D01*
X201110468Y-36422778D01*
X201110464Y-36422776D01*
X201110463Y-36422775D01*
X201106811Y-36421405D01*
X201089199Y-36413165D01*
X201085813Y-36411244D01*
X201085807Y-36411241D01*
X201085805Y-36411240D01*
X201085802Y-36411239D01*
X201085800Y-36411238D01*
X200995932Y-36379792D01*
X200906804Y-36346341D01*
X200906801Y-36346340D01*
X200902968Y-36345645D01*
X200884170Y-36340684D01*
X200880479Y-36339392D01*
X200786420Y-36324495D01*
X200692771Y-36307500D01*
X200692767Y-36307500D01*
X200688872Y-36307500D01*
X200669475Y-36305973D01*
X200665630Y-36305364D01*
X200665628Y-36305363D01*
X200665623Y-36305363D01*
X200665617Y-36305363D01*
X200665616Y-36305363D01*
X200570406Y-36307500D01*
X185415350Y-36307500D01*
X185408410Y-36307110D01*
X185386172Y-36304605D01*
X185371229Y-36302921D01*
X185371222Y-36302920D01*
X185327438Y-36305873D01*
X185305376Y-36307360D01*
X185301223Y-36307500D01*
X185289722Y-36307500D01*
X185249166Y-36311150D01*
X185154184Y-36317553D01*
X185154183Y-36317553D01*
X185150391Y-36318509D01*
X185131234Y-36321764D01*
X185127348Y-36322114D01*
X185127342Y-36322115D01*
X185035582Y-36347438D01*
X184943246Y-36370705D01*
X184943232Y-36370710D01*
X184939681Y-36372323D01*
X184921413Y-36378947D01*
X184917648Y-36379986D01*
X184831878Y-36421290D01*
X184745185Y-36460669D01*
X184745183Y-36460670D01*
X184741967Y-36462898D01*
X184725184Y-36472671D01*
X184721656Y-36474371D01*
X184721655Y-36474371D01*
X184644617Y-36530342D01*
X184566374Y-36584549D01*
X184566362Y-36584559D01*
X184563603Y-36587318D01*
X184548837Y-36599930D01*
X184545668Y-36602232D01*
X184479855Y-36671067D01*
X182726971Y-38423950D01*
X182691701Y-38448648D01*
X182680352Y-38453940D01*
X182680345Y-38453944D01*
X182590186Y-38517075D01*
X182523980Y-38539402D01*
X182519063Y-38539500D01*
X168124596Y-38539500D01*
X168118515Y-38539201D01*
X168072000Y-38534620D01*
X168022453Y-38539500D01*
X167874300Y-38554091D01*
X167684191Y-38611760D01*
X167509001Y-38705401D01*
X167508994Y-38705405D01*
X167360547Y-38827234D01*
X167313977Y-38851155D01*
X167142223Y-38897178D01*
X166947405Y-38988023D01*
X166947403Y-38988024D01*
X166771316Y-39111320D01*
X166619320Y-39263316D01*
X166496024Y-39439403D01*
X166496023Y-39439405D01*
X166406382Y-39631641D01*
X166360209Y-39684080D01*
X166293016Y-39703232D01*
X166226135Y-39683016D01*
X166181618Y-39631641D01*
X166136467Y-39534815D01*
X166091976Y-39439404D01*
X165968681Y-39263319D01*
X165968679Y-39263316D01*
X165816682Y-39111319D01*
X165640601Y-38988026D01*
X165640597Y-38988024D01*
X165640596Y-38988023D01*
X165445777Y-38897178D01*
X165445774Y-38897177D01*
X165445772Y-38897176D01*
X165238144Y-38841542D01*
X165238136Y-38841541D01*
X165024002Y-38822807D01*
X165023998Y-38822807D01*
X164809863Y-38841541D01*
X164809855Y-38841542D01*
X164602227Y-38897176D01*
X164602221Y-38897179D01*
X164407405Y-38988023D01*
X164407403Y-38988024D01*
X164231316Y-39111320D01*
X164079320Y-39263316D01*
X163956024Y-39439403D01*
X163956023Y-39439405D01*
X163862890Y-39639130D01*
X163861302Y-39638389D01*
X163824513Y-39688314D01*
X163759234Y-39713223D01*
X163690852Y-39698886D01*
X163641076Y-39649854D01*
X163637075Y-39642013D01*
X163544588Y-39443673D01*
X163544587Y-39443671D01*
X163505583Y-39387967D01*
X163021419Y-39872132D01*
X162960096Y-39905617D01*
X162890404Y-39900633D01*
X162834471Y-39858761D01*
X162823256Y-39840751D01*
X162811641Y-39817955D01*
X162811637Y-39817951D01*
X162811636Y-39817949D01*
X162722050Y-39728363D01*
X162722047Y-39728361D01*
X162722045Y-39728359D01*
X162699250Y-39716744D01*
X162648456Y-39668771D01*
X162631661Y-39600950D01*
X162654198Y-39534815D01*
X162667866Y-39518580D01*
X163152031Y-39034415D01*
X163096330Y-38995413D01*
X163096328Y-38995412D01*
X162902859Y-38905197D01*
X162902853Y-38905194D01*
X162696662Y-38849945D01*
X162696654Y-38849944D01*
X162484002Y-38831340D01*
X162483998Y-38831340D01*
X162271345Y-38849944D01*
X162271337Y-38849945D01*
X162065146Y-38905194D01*
X162065140Y-38905197D01*
X161871667Y-38995414D01*
X161815967Y-39034414D01*
X162300133Y-39518580D01*
X162333618Y-39579903D01*
X162328634Y-39649595D01*
X162286762Y-39705528D01*
X162268748Y-39716745D01*
X162245956Y-39728358D01*
X162245949Y-39728363D01*
X162156363Y-39817949D01*
X162156358Y-39817956D01*
X162144745Y-39840748D01*
X162096770Y-39891544D01*
X162028949Y-39908338D01*
X161962814Y-39885800D01*
X161946580Y-39872133D01*
X161462414Y-39387967D01*
X161423414Y-39443667D01*
X161333197Y-39637140D01*
X161333194Y-39637146D01*
X161277945Y-39843337D01*
X161277944Y-39843345D01*
X161259340Y-40055997D01*
X161259340Y-40056002D01*
X161277944Y-40268654D01*
X161277945Y-40268662D01*
X161333194Y-40474853D01*
X161333197Y-40474859D01*
X161423412Y-40668328D01*
X161423413Y-40668330D01*
X161462415Y-40724030D01*
X161462415Y-40724031D01*
X161946580Y-40239866D01*
X162007903Y-40206381D01*
X162077594Y-40211365D01*
X162133528Y-40253236D01*
X162144742Y-40271246D01*
X162156359Y-40294045D01*
X162156361Y-40294047D01*
X162156363Y-40294050D01*
X162245949Y-40383636D01*
X162245951Y-40383637D01*
X162245955Y-40383641D01*
X162268747Y-40395254D01*
X162319542Y-40443228D01*
X162336337Y-40511049D01*
X162313799Y-40577184D01*
X162300132Y-40593419D01*
X161815967Y-41077583D01*
X161871670Y-41116586D01*
X162065140Y-41206802D01*
X162065146Y-41206805D01*
X162271337Y-41262054D01*
X162271345Y-41262055D01*
X162483998Y-41280660D01*
X162484002Y-41280660D01*
X162696654Y-41262055D01*
X162696662Y-41262054D01*
X162902853Y-41206805D01*
X162902859Y-41206802D01*
X163096330Y-41116586D01*
X163096336Y-41116582D01*
X163152031Y-41077584D01*
X162667866Y-40593419D01*
X162634381Y-40532096D01*
X162639365Y-40462404D01*
X162681237Y-40406471D01*
X162699245Y-40395258D01*
X162722045Y-40383641D01*
X162811641Y-40294045D01*
X162823254Y-40271252D01*
X162871225Y-40220458D01*
X162939046Y-40203661D01*
X163005181Y-40226197D01*
X163021419Y-40239866D01*
X163505584Y-40724031D01*
X163544582Y-40668336D01*
X163544588Y-40668326D01*
X163637075Y-40469986D01*
X163683247Y-40417546D01*
X163750440Y-40398394D01*
X163817321Y-40418609D01*
X163862656Y-40471774D01*
X163864491Y-40476305D01*
X163956024Y-40672597D01*
X163956026Y-40672601D01*
X164011475Y-40751790D01*
X164062522Y-40824693D01*
X164079323Y-40848686D01*
X164082801Y-40852832D01*
X164081921Y-40853569D01*
X164112663Y-40909849D01*
X164115500Y-40936224D01*
X164115500Y-41498743D01*
X164113973Y-41518142D01*
X164111748Y-41532188D01*
X164115415Y-41602158D01*
X164115500Y-41605404D01*
X164115500Y-41627610D01*
X164116671Y-41638757D01*
X164117820Y-41649693D01*
X164118074Y-41652925D01*
X164121742Y-41722901D01*
X164125424Y-41736640D01*
X164128969Y-41755767D01*
X164130457Y-41769927D01*
X164139095Y-41796510D01*
X164152121Y-41836604D01*
X164153028Y-41839663D01*
X164158456Y-41859918D01*
X164171171Y-41907373D01*
X164177631Y-41920051D01*
X164185073Y-41938018D01*
X164189470Y-41951550D01*
X164189471Y-41951553D01*
X164192499Y-41956798D01*
X164224521Y-42012262D01*
X164226055Y-42015087D01*
X164257871Y-42077530D01*
X164266347Y-42087998D01*
X164266827Y-42088590D01*
X164277838Y-42104610D01*
X164284960Y-42116944D01*
X164284962Y-42116947D01*
X164331846Y-42169017D01*
X164333946Y-42171476D01*
X164347928Y-42188741D01*
X164347930Y-42188744D01*
X164347931Y-42188744D01*
X164363625Y-42204438D01*
X164365846Y-42206777D01*
X164412747Y-42258866D01*
X164424257Y-42267228D01*
X164439052Y-42279865D01*
X165340133Y-43180946D01*
X165352768Y-43195739D01*
X165361132Y-43207251D01*
X165361134Y-43207253D01*
X165413204Y-43254137D01*
X165415560Y-43256373D01*
X165431262Y-43272075D01*
X165448516Y-43286048D01*
X165450982Y-43288154D01*
X165488885Y-43322281D01*
X165503056Y-43335040D01*
X165503058Y-43335041D01*
X165515374Y-43342152D01*
X165531404Y-43353168D01*
X165542470Y-43362129D01*
X165590761Y-43386734D01*
X165604902Y-43393939D01*
X165607739Y-43395478D01*
X165668444Y-43430527D01*
X165681980Y-43434925D01*
X165699949Y-43442367D01*
X165712630Y-43448829D01*
X165780317Y-43466966D01*
X165783402Y-43467879D01*
X165813224Y-43477569D01*
X165870900Y-43517007D01*
X165898098Y-43581365D01*
X165886183Y-43650212D01*
X165838939Y-43701687D01*
X165774906Y-43719500D01*
X135133256Y-43719500D01*
X135113857Y-43717973D01*
X135099810Y-43715748D01*
X135099809Y-43715748D01*
X135029838Y-43719415D01*
X135026595Y-43719500D01*
X135004390Y-43719500D01*
X134993355Y-43720659D01*
X134982305Y-43721820D01*
X134979074Y-43722074D01*
X134909096Y-43725742D01*
X134895343Y-43729427D01*
X134876223Y-43732970D01*
X134862071Y-43734457D01*
X134808987Y-43751705D01*
X134795406Y-43756118D01*
X134792326Y-43757031D01*
X134766607Y-43763922D01*
X134724634Y-43775169D01*
X134724628Y-43775172D01*
X134711947Y-43781632D01*
X134693993Y-43789069D01*
X134680445Y-43793472D01*
X134619769Y-43828502D01*
X134616918Y-43830051D01*
X134554473Y-43861868D01*
X134554470Y-43861870D01*
X134549461Y-43865925D01*
X134547712Y-43867343D01*
X134543408Y-43870828D01*
X134527377Y-43881846D01*
X134515058Y-43888958D01*
X134515053Y-43888962D01*
X134462991Y-43935838D01*
X134460527Y-43937943D01*
X134443267Y-43951921D01*
X134443248Y-43951938D01*
X134427545Y-43967639D01*
X134425195Y-43969869D01*
X134373133Y-44016746D01*
X134364769Y-44028259D01*
X134352135Y-44043050D01*
X130911050Y-47484135D01*
X130896259Y-47496769D01*
X130884746Y-47505133D01*
X130837869Y-47557195D01*
X130835639Y-47559545D01*
X130819939Y-47575247D01*
X130819928Y-47575258D01*
X130805948Y-47592521D01*
X130803843Y-47594985D01*
X130756962Y-47647052D01*
X130756957Y-47647059D01*
X130749838Y-47659388D01*
X130738833Y-47675400D01*
X130729873Y-47686466D01*
X130729871Y-47686468D01*
X130698053Y-47748913D01*
X130696505Y-47751765D01*
X130661471Y-47812445D01*
X130657071Y-47825988D01*
X130649630Y-47843951D01*
X130643171Y-47856628D01*
X130643169Y-47856634D01*
X130631876Y-47898777D01*
X130625031Y-47924324D01*
X130624115Y-47927416D01*
X130602457Y-47994074D01*
X130602457Y-47994077D01*
X130600970Y-48008223D01*
X130597427Y-48027344D01*
X130593742Y-48041097D01*
X130590074Y-48111073D01*
X130589820Y-48114304D01*
X130587499Y-48136402D01*
X130587353Y-48139182D01*
X130564174Y-48205095D01*
X130554754Y-48216652D01*
X130420279Y-48362730D01*
X130420276Y-48362734D01*
X130329808Y-48501206D01*
X130276662Y-48546562D01*
X130207431Y-48555986D01*
X130144095Y-48526484D01*
X130122192Y-48501206D01*
X130031723Y-48362734D01*
X130031715Y-48362723D01*
X129879243Y-48197097D01*
X129879238Y-48197092D01*
X129748189Y-48095092D01*
X129701576Y-48058811D01*
X129701575Y-48058810D01*
X129701572Y-48058808D01*
X129503580Y-47951661D01*
X129503577Y-47951659D01*
X129503574Y-47951658D01*
X129503571Y-47951657D01*
X129503569Y-47951656D01*
X129290637Y-47878556D01*
X129068569Y-47841500D01*
X128843431Y-47841500D01*
X128621362Y-47878556D01*
X128408430Y-47951656D01*
X128408419Y-47951661D01*
X128210427Y-48058808D01*
X128210422Y-48058812D01*
X128032761Y-48197092D01*
X128032756Y-48197097D01*
X127880284Y-48362723D01*
X127880276Y-48362734D01*
X127786251Y-48506650D01*
X127733105Y-48552007D01*
X127663873Y-48561430D01*
X127600538Y-48531928D01*
X127580868Y-48509951D01*
X127454113Y-48328926D01*
X127454108Y-48328920D01*
X127287082Y-48161894D01*
X127093578Y-48026399D01*
X126879492Y-47926570D01*
X126879486Y-47926567D01*
X126666000Y-47869364D01*
X126666000Y-48587698D01*
X126646315Y-48654737D01*
X126593511Y-48700492D01*
X126524355Y-48710436D01*
X126451766Y-48700000D01*
X126451763Y-48700000D01*
X126380237Y-48700000D01*
X126380233Y-48700000D01*
X126307645Y-48710436D01*
X126238487Y-48700492D01*
X126185684Y-48654736D01*
X126166000Y-48587698D01*
X126166000Y-47869364D01*
X126165999Y-47869364D01*
X125952513Y-47926567D01*
X125952507Y-47926570D01*
X125738422Y-48026399D01*
X125738420Y-48026400D01*
X125544926Y-48161886D01*
X125544920Y-48161891D01*
X125377891Y-48328920D01*
X125377890Y-48328922D01*
X125251131Y-48509952D01*
X125196554Y-48553577D01*
X125127055Y-48560769D01*
X125064701Y-48529247D01*
X125045752Y-48506656D01*
X124951722Y-48362732D01*
X124951715Y-48362725D01*
X124951715Y-48362723D01*
X124799243Y-48197097D01*
X124799238Y-48197092D01*
X124668189Y-48095092D01*
X124621576Y-48058811D01*
X124621575Y-48058810D01*
X124621572Y-48058808D01*
X124423580Y-47951661D01*
X124423577Y-47951659D01*
X124423574Y-47951658D01*
X124423571Y-47951657D01*
X124423569Y-47951656D01*
X124210637Y-47878556D01*
X123988569Y-47841500D01*
X123763431Y-47841500D01*
X123541362Y-47878556D01*
X123328430Y-47951656D01*
X123328419Y-47951661D01*
X123130427Y-48058808D01*
X123130422Y-48058812D01*
X122952761Y-48197092D01*
X122952756Y-48197097D01*
X122800284Y-48362723D01*
X122800276Y-48362734D01*
X122709808Y-48501206D01*
X122656662Y-48546562D01*
X122587431Y-48555986D01*
X122524095Y-48526484D01*
X122502192Y-48501206D01*
X122411723Y-48362734D01*
X122411722Y-48362732D01*
X122377270Y-48325307D01*
X122346348Y-48262654D01*
X122344500Y-48241325D01*
X122344500Y-46712594D01*
X122344799Y-46706513D01*
X122345763Y-46696719D01*
X122349380Y-46660000D01*
X122329908Y-46462299D01*
X122272241Y-46272196D01*
X122259034Y-46247487D01*
X122178595Y-46096996D01*
X122052568Y-45943432D01*
X122033315Y-45927632D01*
X122016434Y-45913778D01*
X122011933Y-45909699D01*
X121578301Y-45476067D01*
X121574222Y-45471566D01*
X121573424Y-45470594D01*
X121564597Y-45459838D01*
X121544567Y-45435430D01*
X121391005Y-45309405D01*
X121390998Y-45309401D01*
X121215809Y-45215761D01*
X121215806Y-45215760D01*
X121215804Y-45215759D01*
X121192923Y-45208818D01*
X121055970Y-45167273D01*
X121025702Y-45158091D01*
X120902324Y-45145940D01*
X120828000Y-45138620D01*
X120827999Y-45138620D01*
X120781482Y-45143201D01*
X120775402Y-45143500D01*
X113768598Y-45143500D01*
X113762518Y-45143201D01*
X113716000Y-45138620D01*
X113518297Y-45158091D01*
X113455153Y-45177246D01*
X113351077Y-45208818D01*
X113328196Y-45215759D01*
X113328195Y-45215759D01*
X113328190Y-45215761D01*
X113153001Y-45309401D01*
X113152994Y-45309405D01*
X112999431Y-45435432D01*
X112969775Y-45471567D01*
X112965687Y-45476077D01*
X112464077Y-45977687D01*
X112459567Y-45981775D01*
X112423432Y-46011431D01*
X112297405Y-46164994D01*
X112276959Y-46203248D01*
X112203759Y-46340194D01*
X112146091Y-46530296D01*
X112126620Y-46728000D01*
X112131201Y-46774517D01*
X112131500Y-46780597D01*
X112131500Y-54159401D01*
X112131201Y-54165481D01*
X112126620Y-54211999D01*
X112126620Y-54212000D01*
X112135659Y-54303782D01*
X112146091Y-54409702D01*
X112160071Y-54455785D01*
X112191657Y-54559910D01*
X112201999Y-54594000D01*
X112203759Y-54599804D01*
X112203762Y-54599812D01*
X112297401Y-54774998D01*
X112297405Y-54775005D01*
X112423430Y-54928567D01*
X112447844Y-54948602D01*
X112458844Y-54957630D01*
X112459566Y-54958222D01*
X112464067Y-54962301D01*
X116890710Y-59388944D01*
X121307181Y-63805415D01*
X121340666Y-63866738D01*
X121343500Y-63893096D01*
X121343500Y-65337890D01*
X121323815Y-65404929D01*
X121321087Y-65408995D01*
X121279006Y-65469094D01*
X121214476Y-65561252D01*
X121214475Y-65561254D01*
X121117718Y-65768750D01*
X121117714Y-65768761D01*
X121058457Y-65989910D01*
X121058456Y-65989918D01*
X121038502Y-66217998D01*
X121038502Y-66218001D01*
X121058456Y-66446081D01*
X121058457Y-66446089D01*
X121117714Y-66667238D01*
X121117718Y-66667249D01*
X121214475Y-66874745D01*
X121214479Y-66874753D01*
X121321074Y-67026986D01*
X121343401Y-67093192D01*
X121343499Y-67098109D01*
X121343500Y-69975401D01*
X121343201Y-69981481D01*
X121338620Y-70027999D01*
X121358091Y-70225703D01*
X121402016Y-70370500D01*
X121415760Y-70415808D01*
X121509401Y-70590998D01*
X121509405Y-70591005D01*
X121635430Y-70744567D01*
X121671566Y-70774222D01*
X121676067Y-70778301D01*
X125665696Y-74767930D01*
X125669774Y-74772430D01*
X125699432Y-74808568D01*
X125852996Y-74934595D01*
X126028196Y-75028241D01*
X126072441Y-75041662D01*
X126072442Y-75041662D01*
X126218295Y-75085908D01*
X126218299Y-75085909D01*
X126416000Y-75105380D01*
X126449482Y-75102082D01*
X126462518Y-75100799D01*
X126468598Y-75100500D01*
X131237263Y-75100500D01*
X131304302Y-75120185D01*
X131336528Y-75150187D01*
X131386739Y-75217261D01*
X131503796Y-75304889D01*
X131640799Y-75355989D01*
X131668050Y-75358918D01*
X131701345Y-75362499D01*
X131701362Y-75362500D01*
X133322638Y-75362500D01*
X133322654Y-75362499D01*
X133349692Y-75359591D01*
X133383201Y-75355989D01*
X133520204Y-75304889D01*
X133637261Y-75217261D01*
X133724889Y-75100204D01*
X133775989Y-74963201D01*
X133779637Y-74929265D01*
X133782499Y-74902654D01*
X133782499Y-74902647D01*
X133782500Y-74902638D01*
X133782500Y-73281362D01*
X133782499Y-73281352D01*
X133782499Y-73281345D01*
X133778813Y-73247067D01*
X133775989Y-73220799D01*
X133724889Y-73083796D01*
X133637261Y-72966739D01*
X133622895Y-72955985D01*
X133610889Y-72946997D01*
X133569019Y-72891063D01*
X133564035Y-72821371D01*
X133583625Y-72776608D01*
X133616488Y-72729677D01*
X133710440Y-72528196D01*
X133767978Y-72313463D01*
X133787353Y-72092000D01*
X133767978Y-71870537D01*
X133710440Y-71655804D01*
X133616488Y-71454324D01*
X133616486Y-71454321D01*
X133616485Y-71454319D01*
X133505365Y-71295623D01*
X133483038Y-71229417D01*
X133500048Y-71161650D01*
X133550996Y-71113837D01*
X133606940Y-71100500D01*
X135154904Y-71100500D01*
X135221943Y-71120185D01*
X135242585Y-71136819D01*
X136039181Y-71933415D01*
X136072666Y-71994738D01*
X136075500Y-72021096D01*
X136075500Y-77920902D01*
X136055815Y-77987941D01*
X136039181Y-78008583D01*
X133546298Y-80501466D01*
X133490712Y-80533559D01*
X133347090Y-80572043D01*
X133155443Y-80661410D01*
X133155441Y-80661411D01*
X132982221Y-80782700D01*
X132832700Y-80932221D01*
X132711411Y-81105441D01*
X132711410Y-81105443D01*
X132622045Y-81297088D01*
X132622042Y-81297094D01*
X132611775Y-81335414D01*
X132575410Y-81395074D01*
X132512563Y-81425603D01*
X132443187Y-81417308D01*
X132389309Y-81372823D01*
X132372225Y-81335414D01*
X132361957Y-81297094D01*
X132361956Y-81297090D01*
X132272589Y-81105442D01*
X132151301Y-80932224D01*
X132151299Y-80932221D01*
X132001778Y-80782700D01*
X131828558Y-80661411D01*
X131828556Y-80661410D01*
X131807071Y-80651391D01*
X131636910Y-80572044D01*
X131636906Y-80572043D01*
X131636904Y-80572042D01*
X131493287Y-80533560D01*
X131437700Y-80501466D01*
X130310102Y-79373868D01*
X129178301Y-78242067D01*
X129174222Y-78237566D01*
X129144567Y-78201430D01*
X128991005Y-78075405D01*
X128991002Y-78075403D01*
X128865988Y-78008583D01*
X128840360Y-77994884D01*
X128830210Y-77986129D01*
X128815804Y-77981758D01*
X128625701Y-77924091D01*
X128625698Y-77924090D01*
X128452245Y-77907007D01*
X128428000Y-77904620D01*
X128427999Y-77904620D01*
X128381482Y-77909201D01*
X128375402Y-77909500D01*
X127296110Y-77909500D01*
X127229071Y-77889815D01*
X127224986Y-77887075D01*
X127108628Y-77805600D01*
X127072749Y-77780477D01*
X127072745Y-77780475D01*
X126865249Y-77683718D01*
X126865238Y-77683714D01*
X126644089Y-77624457D01*
X126644081Y-77624456D01*
X126416002Y-77604502D01*
X126415998Y-77604502D01*
X126187918Y-77624456D01*
X126187910Y-77624457D01*
X125966761Y-77683714D01*
X125966750Y-77683718D01*
X125759254Y-77780475D01*
X125759252Y-77780476D01*
X125607014Y-77887075D01*
X125540807Y-77909402D01*
X125535890Y-77909500D01*
X123232110Y-77909500D01*
X123165071Y-77889815D01*
X123160986Y-77887075D01*
X123044628Y-77805600D01*
X123008749Y-77780477D01*
X123008745Y-77780475D01*
X122801249Y-77683718D01*
X122801238Y-77683714D01*
X122580089Y-77624457D01*
X122580081Y-77624456D01*
X122352002Y-77604502D01*
X122351998Y-77604502D01*
X122123918Y-77624456D01*
X122123910Y-77624457D01*
X121902761Y-77683714D01*
X121902750Y-77683718D01*
X121695254Y-77780475D01*
X121695252Y-77780476D01*
X121695249Y-77780477D01*
X121695251Y-77780477D01*
X121507700Y-77911802D01*
X121507698Y-77911803D01*
X121507695Y-77911806D01*
X121345806Y-78073695D01*
X121345803Y-78073698D01*
X121345802Y-78073700D01*
X121282977Y-78163423D01*
X121214476Y-78261252D01*
X121214475Y-78261254D01*
X121117718Y-78468750D01*
X121117714Y-78468761D01*
X121058457Y-78689910D01*
X121058456Y-78689918D01*
X121038502Y-78917998D01*
X121038502Y-78918001D01*
X121058456Y-79146081D01*
X121058457Y-79146089D01*
X121117714Y-79367238D01*
X121117718Y-79367249D01*
X121211792Y-79568992D01*
X121214477Y-79574749D01*
X121345802Y-79762300D01*
X121507700Y-79924198D01*
X121695251Y-80055523D01*
X121820091Y-80113736D01*
X121902750Y-80152281D01*
X121902752Y-80152281D01*
X121902757Y-80152284D01*
X122123913Y-80211543D01*
X122286832Y-80225796D01*
X122351998Y-80231498D01*
X122352000Y-80231498D01*
X122352002Y-80231498D01*
X122409021Y-80226509D01*
X122580087Y-80211543D01*
X122801243Y-80152284D01*
X123008749Y-80055523D01*
X123160985Y-79948925D01*
X123227193Y-79926598D01*
X123232110Y-79926500D01*
X125535890Y-79926500D01*
X125602929Y-79946185D01*
X125607015Y-79948925D01*
X125759251Y-80055523D01*
X125884091Y-80113736D01*
X125966750Y-80152281D01*
X125966752Y-80152281D01*
X125966757Y-80152284D01*
X126187913Y-80211543D01*
X126350832Y-80225796D01*
X126415998Y-80231498D01*
X126416000Y-80231498D01*
X126416002Y-80231498D01*
X126473021Y-80226509D01*
X126644087Y-80211543D01*
X126865243Y-80152284D01*
X127072749Y-80055523D01*
X127224985Y-79948925D01*
X127291193Y-79926598D01*
X127296110Y-79926500D01*
X127958904Y-79926500D01*
X128025943Y-79946185D01*
X128046585Y-79962819D01*
X130011466Y-81927700D01*
X130043560Y-81983287D01*
X130082041Y-82126902D01*
X130082044Y-82126910D01*
X130171410Y-82318556D01*
X130171411Y-82318558D01*
X130171415Y-82318564D01*
X130191074Y-82346640D01*
X130213402Y-82412846D01*
X130213500Y-82417764D01*
X130213500Y-83925401D01*
X130213201Y-83931481D01*
X130208620Y-83977999D01*
X130228091Y-84175703D01*
X130285312Y-84364330D01*
X130285678Y-84365654D01*
X130379401Y-84540998D01*
X130379405Y-84541005D01*
X130505430Y-84694567D01*
X130541566Y-84724222D01*
X130546067Y-84728301D01*
X131085764Y-85267998D01*
X131467180Y-85649414D01*
X131500665Y-85710737D01*
X131503499Y-85737095D01*
X131503499Y-88771404D01*
X131503200Y-88777484D01*
X131498620Y-88823997D01*
X131498620Y-88823999D01*
X131518091Y-89021702D01*
X131552248Y-89134299D01*
X131575760Y-89211808D01*
X131669401Y-89386998D01*
X131669405Y-89387005D01*
X131795430Y-89540567D01*
X131831566Y-89570222D01*
X131836067Y-89574301D01*
X134603987Y-92342220D01*
X137055181Y-94793414D01*
X137088666Y-94854737D01*
X137091500Y-94881095D01*
X137091500Y-96501325D01*
X137071815Y-96568364D01*
X137058731Y-96585306D01*
X137051238Y-96593446D01*
X137024279Y-96622730D01*
X137024276Y-96622734D01*
X136933807Y-96761206D01*
X136880660Y-96806563D01*
X136811429Y-96815986D01*
X136748093Y-96786483D01*
X136726191Y-96761206D01*
X136635722Y-96622732D01*
X136635717Y-96622727D01*
X136635715Y-96622723D01*
X136483243Y-96457097D01*
X136483238Y-96457092D01*
X136305577Y-96318812D01*
X136305572Y-96318808D01*
X136107580Y-96211661D01*
X136107577Y-96211659D01*
X136107574Y-96211658D01*
X136107571Y-96211657D01*
X136107569Y-96211656D01*
X135894637Y-96138556D01*
X135672569Y-96101500D01*
X135447431Y-96101500D01*
X135225362Y-96138556D01*
X135012430Y-96211656D01*
X135012419Y-96211661D01*
X134814427Y-96318808D01*
X134814422Y-96318812D01*
X134636761Y-96457092D01*
X134636756Y-96457097D01*
X134484284Y-96622723D01*
X134484276Y-96622734D01*
X134393808Y-96761206D01*
X134340662Y-96806562D01*
X134271431Y-96815986D01*
X134208095Y-96786484D01*
X134186192Y-96761206D01*
X134095723Y-96622734D01*
X134095715Y-96622723D01*
X133961271Y-96476680D01*
X133930348Y-96414026D01*
X133928500Y-96392697D01*
X133928500Y-95509255D01*
X133930027Y-95489855D01*
X133932252Y-95475809D01*
X133928585Y-95405838D01*
X133928500Y-95402593D01*
X133928500Y-95380391D01*
X133928499Y-95380382D01*
X133926178Y-95358299D01*
X133925924Y-95355082D01*
X133922257Y-95285096D01*
X133918576Y-95271359D01*
X133915029Y-95252221D01*
X133914681Y-95248920D01*
X133913542Y-95238072D01*
X133891882Y-95171411D01*
X133890961Y-95168301D01*
X133872829Y-95100631D01*
X133872829Y-95100630D01*
X133866367Y-95087949D01*
X133858923Y-95069975D01*
X133854527Y-95056444D01*
X133854526Y-95056443D01*
X133819478Y-94995739D01*
X133817939Y-94992902D01*
X133810734Y-94978761D01*
X133786129Y-94930470D01*
X133777168Y-94919404D01*
X133766152Y-94903374D01*
X133759041Y-94891058D01*
X133759040Y-94891056D01*
X133726339Y-94854737D01*
X133712154Y-94838982D01*
X133710048Y-94836516D01*
X133696075Y-94819262D01*
X133680373Y-94803560D01*
X133678137Y-94801204D01*
X133631253Y-94749134D01*
X133631251Y-94749132D01*
X133619739Y-94740768D01*
X133604946Y-94728133D01*
X130599863Y-91723050D01*
X130587226Y-91708253D01*
X130583965Y-91703765D01*
X130568860Y-91676189D01*
X130544798Y-91614881D01*
X130544794Y-91614873D01*
X130413015Y-91386624D01*
X130248686Y-91180562D01*
X130248685Y-91180561D01*
X130248682Y-91180557D01*
X130055481Y-91001294D01*
X130055478Y-91001292D01*
X129837716Y-90852824D01*
X129837712Y-90852822D01*
X129837711Y-90852821D01*
X129706758Y-90789757D01*
X129600254Y-90738468D01*
X129600248Y-90738466D01*
X129600240Y-90738463D01*
X129348405Y-90660783D01*
X129348395Y-90660780D01*
X129087788Y-90621500D01*
X129087781Y-90621500D01*
X128824219Y-90621500D01*
X128824211Y-90621500D01*
X128563604Y-90660780D01*
X128563598Y-90660782D01*
X128311745Y-90738468D01*
X128074288Y-90852822D01*
X128074284Y-90852824D01*
X127856521Y-91001292D01*
X127663317Y-91180557D01*
X127498986Y-91386622D01*
X127498984Y-91386624D01*
X127498985Y-91386624D01*
X127485777Y-91409500D01*
X127435212Y-91457715D01*
X127378391Y-91471500D01*
X124033609Y-91471500D01*
X123966570Y-91451815D01*
X123926223Y-91409501D01*
X123913015Y-91386624D01*
X123748686Y-91180562D01*
X123748685Y-91180561D01*
X123748682Y-91180557D01*
X123555481Y-91001294D01*
X123555478Y-91001292D01*
X123337716Y-90852824D01*
X123337712Y-90852822D01*
X123337711Y-90852821D01*
X123206758Y-90789757D01*
X123100254Y-90738468D01*
X123100248Y-90738466D01*
X123100240Y-90738463D01*
X122848405Y-90660783D01*
X122848395Y-90660780D01*
X122587788Y-90621500D01*
X122587781Y-90621500D01*
X122324219Y-90621500D01*
X122324211Y-90621500D01*
X122063604Y-90660780D01*
X122063598Y-90660782D01*
X121811745Y-90738468D01*
X121574288Y-90852822D01*
X121574284Y-90852824D01*
X121356521Y-91001292D01*
X121163317Y-91180557D01*
X120998985Y-91386624D01*
X120867204Y-91614875D01*
X120770915Y-91860214D01*
X120770910Y-91860231D01*
X120712264Y-92117176D01*
X120692569Y-92379995D01*
X120692569Y-92380004D01*
X120712264Y-92642823D01*
X120763475Y-92867191D01*
X120770913Y-92899780D01*
X120867204Y-93145124D01*
X120998985Y-93373376D01*
X121100976Y-93501269D01*
X121163317Y-93579442D01*
X121251957Y-93661687D01*
X121356519Y-93758706D01*
X121574285Y-93907176D01*
X121811746Y-94021532D01*
X122063600Y-94099218D01*
X122063601Y-94099218D01*
X122063604Y-94099219D01*
X122324211Y-94138499D01*
X122324216Y-94138499D01*
X122324219Y-94138500D01*
X122324220Y-94138500D01*
X122587780Y-94138500D01*
X122587781Y-94138500D01*
X122587788Y-94138499D01*
X122848395Y-94099219D01*
X122848396Y-94099218D01*
X122848400Y-94099218D01*
X123100254Y-94021532D01*
X123337716Y-93907176D01*
X123555481Y-93758706D01*
X123721948Y-93604247D01*
X123748682Y-93579442D01*
X123748682Y-93579440D01*
X123748686Y-93579438D01*
X123913015Y-93373376D01*
X123926222Y-93350499D01*
X123976788Y-93302285D01*
X124033609Y-93288500D01*
X127378391Y-93288500D01*
X127445430Y-93308185D01*
X127485776Y-93350498D01*
X127498985Y-93373376D01*
X127576808Y-93470963D01*
X127663317Y-93579442D01*
X127751957Y-93661687D01*
X127856519Y-93758706D01*
X128074285Y-93907176D01*
X128311746Y-94021532D01*
X128563600Y-94099218D01*
X128563601Y-94099218D01*
X128563604Y-94099219D01*
X128824211Y-94138499D01*
X128824216Y-94138499D01*
X128824219Y-94138500D01*
X128824220Y-94138500D01*
X129087780Y-94138500D01*
X129087781Y-94138500D01*
X129087788Y-94138499D01*
X129348395Y-94099219D01*
X129348396Y-94099218D01*
X129348400Y-94099218D01*
X129600254Y-94021532D01*
X129837716Y-93907176D01*
X129976788Y-93812357D01*
X130043264Y-93790858D01*
X130110814Y-93808711D01*
X130134318Y-93827131D01*
X132075181Y-95767994D01*
X132108666Y-95829317D01*
X132111500Y-95855675D01*
X132111500Y-96392697D01*
X132091815Y-96459736D01*
X132078729Y-96476680D01*
X131944284Y-96622723D01*
X131944276Y-96622734D01*
X131853808Y-96761206D01*
X131800662Y-96806562D01*
X131731431Y-96815986D01*
X131668095Y-96786484D01*
X131646192Y-96761206D01*
X131555723Y-96622734D01*
X131555715Y-96622723D01*
X131403243Y-96457097D01*
X131403238Y-96457092D01*
X131225577Y-96318812D01*
X131225572Y-96318808D01*
X131027580Y-96211661D01*
X131027577Y-96211659D01*
X131027574Y-96211658D01*
X131027571Y-96211657D01*
X131027569Y-96211656D01*
X130814637Y-96138556D01*
X130592569Y-96101500D01*
X130367431Y-96101500D01*
X130145362Y-96138556D01*
X129932430Y-96211656D01*
X129932419Y-96211661D01*
X129734427Y-96318808D01*
X129734422Y-96318812D01*
X129556761Y-96457092D01*
X129493548Y-96525760D01*
X129433661Y-96561750D01*
X129363823Y-96559649D01*
X129306207Y-96520124D01*
X129286138Y-96485110D01*
X129240889Y-96363796D01*
X129207214Y-96318812D01*
X129153261Y-96246739D01*
X129036204Y-96159111D01*
X129036203Y-96159110D01*
X128899203Y-96108011D01*
X128838654Y-96101500D01*
X128838638Y-96101500D01*
X127041362Y-96101500D01*
X127041345Y-96101500D01*
X126980797Y-96108011D01*
X126980795Y-96108011D01*
X126843795Y-96159111D01*
X126726739Y-96246739D01*
X126639111Y-96363795D01*
X126588011Y-96500795D01*
X126588011Y-96500797D01*
X126581500Y-96561345D01*
X126581500Y-98358654D01*
X126588011Y-98419202D01*
X126588011Y-98419204D01*
X126625511Y-98519742D01*
X126639111Y-98556204D01*
X126726739Y-98673261D01*
X126843796Y-98760889D01*
X126980799Y-98811989D01*
X127008050Y-98814918D01*
X127041345Y-98818499D01*
X127041362Y-98818500D01*
X128838638Y-98818500D01*
X128838654Y-98818499D01*
X128865692Y-98815591D01*
X128899201Y-98811989D01*
X129036204Y-98760889D01*
X129153261Y-98673261D01*
X129240889Y-98556204D01*
X129286138Y-98434887D01*
X129328009Y-98378956D01*
X129393474Y-98354539D01*
X129461746Y-98369391D01*
X129493545Y-98394236D01*
X129556760Y-98462906D01*
X129734424Y-98601189D01*
X129734425Y-98601189D01*
X129734427Y-98601191D01*
X129794314Y-98633600D01*
X129932426Y-98708342D01*
X130145365Y-98781444D01*
X130367431Y-98818500D01*
X130592569Y-98818500D01*
X130814635Y-98781444D01*
X131027574Y-98708342D01*
X131225576Y-98601189D01*
X131403240Y-98462906D01*
X131524594Y-98331082D01*
X131555715Y-98297276D01*
X131555715Y-98297275D01*
X131555722Y-98297268D01*
X131646193Y-98158790D01*
X131699338Y-98113437D01*
X131768569Y-98104013D01*
X131831905Y-98133515D01*
X131853804Y-98158787D01*
X131944278Y-98297268D01*
X131944283Y-98297273D01*
X131944284Y-98297276D01*
X132070968Y-98434889D01*
X132096760Y-98462906D01*
X132274424Y-98601189D01*
X132274425Y-98601189D01*
X132274427Y-98601191D01*
X132334314Y-98633600D01*
X132472426Y-98708342D01*
X132685365Y-98781444D01*
X132907431Y-98818500D01*
X133132569Y-98818500D01*
X133354635Y-98781444D01*
X133567574Y-98708342D01*
X133765576Y-98601189D01*
X133943240Y-98462906D01*
X134064594Y-98331082D01*
X134095715Y-98297276D01*
X134095715Y-98297275D01*
X134095722Y-98297268D01*
X134186193Y-98158790D01*
X134239338Y-98113437D01*
X134308569Y-98104013D01*
X134371905Y-98133515D01*
X134393804Y-98158787D01*
X134484278Y-98297268D01*
X134484283Y-98297273D01*
X134484284Y-98297276D01*
X134610968Y-98434889D01*
X134636760Y-98462906D01*
X134814424Y-98601189D01*
X134814425Y-98601189D01*
X134814427Y-98601191D01*
X134874314Y-98633600D01*
X135012426Y-98708342D01*
X135225365Y-98781444D01*
X135447431Y-98818500D01*
X135672569Y-98818500D01*
X135894635Y-98781444D01*
X136107574Y-98708342D01*
X136305576Y-98601189D01*
X136483240Y-98462906D01*
X136604594Y-98331082D01*
X136635715Y-98297276D01*
X136635717Y-98297273D01*
X136635722Y-98297268D01*
X136663692Y-98254455D01*
X136716837Y-98209100D01*
X136786069Y-98199676D01*
X136849404Y-98229178D01*
X136886736Y-98288238D01*
X136891500Y-98322278D01*
X136891500Y-98912650D01*
X136891110Y-98919589D01*
X136888901Y-98939199D01*
X136886921Y-98956770D01*
X136886920Y-98956777D01*
X136889818Y-98999754D01*
X136891360Y-99022623D01*
X136891500Y-99026777D01*
X136891500Y-99038276D01*
X136895150Y-99078833D01*
X136901553Y-99173807D01*
X136901554Y-99173817D01*
X136902510Y-99177611D01*
X136905764Y-99196765D01*
X136906114Y-99200653D01*
X136906114Y-99200655D01*
X136906115Y-99200658D01*
X136931438Y-99292417D01*
X136954706Y-99384756D01*
X136954708Y-99384761D01*
X136954709Y-99384763D01*
X136956322Y-99388315D01*
X136962948Y-99406590D01*
X136963987Y-99410353D01*
X137005290Y-99496121D01*
X137018841Y-99525955D01*
X137044670Y-99582817D01*
X137046889Y-99586019D01*
X137056674Y-99602822D01*
X137058370Y-99606343D01*
X137058371Y-99606345D01*
X137114342Y-99683382D01*
X137168548Y-99761625D01*
X137168551Y-99761628D01*
X137168552Y-99761629D01*
X137171303Y-99764380D01*
X137183941Y-99779178D01*
X137186234Y-99782333D01*
X137186235Y-99782334D01*
X137255067Y-99848144D01*
X138973004Y-101566081D01*
X138977641Y-101571269D01*
X139000972Y-101600525D01*
X139050673Y-101643948D01*
X139053706Y-101646783D01*
X139061840Y-101654917D01*
X139061846Y-101654922D01*
X139093096Y-101681011D01*
X139159606Y-101739120D01*
X139197139Y-101798052D01*
X139196853Y-101867921D01*
X139158839Y-101926544D01*
X139095165Y-101955309D01*
X139078020Y-101956500D01*
X113290636Y-101956500D01*
X113223597Y-101936815D01*
X113202955Y-101920181D01*
X110779819Y-99497045D01*
X110746334Y-99435722D01*
X110743500Y-99409364D01*
X110743500Y-87880004D01*
X120701093Y-87880004D01*
X120720692Y-88141545D01*
X120720693Y-88141550D01*
X120779058Y-88397270D01*
X120874883Y-88641426D01*
X120874882Y-88641426D01*
X121006030Y-88868577D01*
X121053873Y-88928571D01*
X121807481Y-88174963D01*
X121868804Y-88141478D01*
X121938495Y-88146462D01*
X121994429Y-88188334D01*
X121997513Y-88193249D01*
X121997549Y-88193225D01*
X122002441Y-88200156D01*
X122089984Y-88293891D01*
X122105638Y-88310652D01*
X122140698Y-88331973D01*
X122187749Y-88383623D01*
X122199407Y-88452513D01*
X122171970Y-88516770D01*
X122163950Y-88525601D01*
X121406831Y-89282720D01*
X121578546Y-89399793D01*
X121578550Y-89399795D01*
X121814854Y-89513594D01*
X121814858Y-89513595D01*
X122065494Y-89590907D01*
X122065500Y-89590909D01*
X122324848Y-89629999D01*
X122324857Y-89630000D01*
X122587143Y-89630000D01*
X122587151Y-89629999D01*
X122846499Y-89590909D01*
X122846505Y-89590907D01*
X123097143Y-89513595D01*
X123333445Y-89399798D01*
X123333456Y-89399791D01*
X123505167Y-89282720D01*
X122749165Y-88526718D01*
X122715680Y-88465395D01*
X122720664Y-88395703D01*
X122758588Y-88342853D01*
X122861739Y-88258934D01*
X122912052Y-88187655D01*
X122966793Y-88144239D01*
X123036318Y-88137310D01*
X123098553Y-88169068D01*
X123101037Y-88171484D01*
X123858124Y-88928571D01*
X123905974Y-88868570D01*
X124037116Y-88641426D01*
X124132941Y-88397270D01*
X124191306Y-88141550D01*
X124191307Y-88141545D01*
X124210907Y-87880004D01*
X127201093Y-87880004D01*
X127220692Y-88141545D01*
X127220693Y-88141550D01*
X127279058Y-88397270D01*
X127374883Y-88641426D01*
X127374882Y-88641426D01*
X127506030Y-88868577D01*
X127553873Y-88928571D01*
X128307481Y-88174963D01*
X128368804Y-88141478D01*
X128438495Y-88146462D01*
X128494429Y-88188334D01*
X128497513Y-88193249D01*
X128497549Y-88193225D01*
X128502441Y-88200156D01*
X128589984Y-88293891D01*
X128605638Y-88310652D01*
X128640698Y-88331973D01*
X128687749Y-88383623D01*
X128699407Y-88452513D01*
X128671970Y-88516770D01*
X128663950Y-88525601D01*
X127906831Y-89282720D01*
X128078546Y-89399793D01*
X128078550Y-89399795D01*
X128314854Y-89513594D01*
X128314858Y-89513595D01*
X128565494Y-89590907D01*
X128565500Y-89590909D01*
X128824848Y-89629999D01*
X128824857Y-89630000D01*
X129087143Y-89630000D01*
X129087151Y-89629999D01*
X129346499Y-89590909D01*
X129346505Y-89590907D01*
X129597143Y-89513595D01*
X129833445Y-89399798D01*
X129833456Y-89399791D01*
X130005167Y-89282720D01*
X129249165Y-88526718D01*
X129215680Y-88465395D01*
X129220664Y-88395703D01*
X129258588Y-88342853D01*
X129361739Y-88258934D01*
X129412052Y-88187655D01*
X129466793Y-88144239D01*
X129536318Y-88137310D01*
X129598553Y-88169068D01*
X129601037Y-88171484D01*
X130358124Y-88928571D01*
X130405974Y-88868570D01*
X130537116Y-88641426D01*
X130632941Y-88397270D01*
X130691306Y-88141550D01*
X130691307Y-88141545D01*
X130710907Y-87880004D01*
X130710907Y-87879995D01*
X130691307Y-87618454D01*
X130691306Y-87618449D01*
X130632941Y-87362729D01*
X130537116Y-87118573D01*
X130537117Y-87118573D01*
X130405971Y-86891426D01*
X130358125Y-86831427D01*
X130358124Y-86831427D01*
X129604517Y-87585034D01*
X129543194Y-87618519D01*
X129473502Y-87613535D01*
X129417569Y-87571663D01*
X129414486Y-87566750D01*
X129414451Y-87566775D01*
X129409558Y-87559843D01*
X129306360Y-87449346D01*
X129306358Y-87449345D01*
X129271300Y-87428026D01*
X129224248Y-87376375D01*
X129212590Y-87307485D01*
X129240027Y-87243228D01*
X129248047Y-87234397D01*
X130005167Y-86477278D01*
X129833447Y-86360202D01*
X129833445Y-86360201D01*
X129597142Y-86246404D01*
X129597144Y-86246404D01*
X129346505Y-86169092D01*
X129346499Y-86169090D01*
X129087151Y-86130000D01*
X128824848Y-86130000D01*
X128565500Y-86169090D01*
X128565494Y-86169092D01*
X128314858Y-86246404D01*
X128314854Y-86246405D01*
X128078550Y-86360204D01*
X128078546Y-86360206D01*
X127906832Y-86477278D01*
X128662833Y-87233280D01*
X128696318Y-87294603D01*
X128691334Y-87364295D01*
X128653408Y-87417148D01*
X128550262Y-87501064D01*
X128550258Y-87501069D01*
X128499947Y-87572343D01*
X128445204Y-87615760D01*
X128375679Y-87622689D01*
X128313444Y-87590930D01*
X128310962Y-87588515D01*
X127553874Y-86831428D01*
X127506027Y-86891426D01*
X127374883Y-87118573D01*
X127279058Y-87362729D01*
X127220693Y-87618449D01*
X127220692Y-87618454D01*
X127201093Y-87879995D01*
X127201093Y-87880004D01*
X124210907Y-87880004D01*
X124210907Y-87879995D01*
X124191307Y-87618454D01*
X124191306Y-87618449D01*
X124132941Y-87362729D01*
X124037116Y-87118573D01*
X124037117Y-87118573D01*
X123905971Y-86891426D01*
X123858125Y-86831427D01*
X123858124Y-86831427D01*
X123104517Y-87585034D01*
X123043194Y-87618519D01*
X122973502Y-87613535D01*
X122917569Y-87571663D01*
X122914486Y-87566750D01*
X122914451Y-87566775D01*
X122909558Y-87559843D01*
X122806360Y-87449346D01*
X122806358Y-87449345D01*
X122771300Y-87428026D01*
X122724248Y-87376375D01*
X122712590Y-87307485D01*
X122740027Y-87243228D01*
X122748047Y-87234397D01*
X123505167Y-86477278D01*
X123333447Y-86360202D01*
X123333445Y-86360201D01*
X123097142Y-86246404D01*
X123097144Y-86246404D01*
X122846505Y-86169092D01*
X122846499Y-86169090D01*
X122587151Y-86130000D01*
X122324848Y-86130000D01*
X122065500Y-86169090D01*
X122065494Y-86169092D01*
X121814858Y-86246404D01*
X121814854Y-86246405D01*
X121578550Y-86360204D01*
X121578546Y-86360206D01*
X121406832Y-86477278D01*
X122162833Y-87233280D01*
X122196318Y-87294603D01*
X122191334Y-87364295D01*
X122153408Y-87417148D01*
X122050262Y-87501064D01*
X122050258Y-87501069D01*
X121999947Y-87572343D01*
X121945204Y-87615760D01*
X121875679Y-87622689D01*
X121813444Y-87590930D01*
X121810962Y-87588515D01*
X121053874Y-86831428D01*
X121006027Y-86891426D01*
X120874883Y-87118573D01*
X120779058Y-87362729D01*
X120720693Y-87618449D01*
X120720692Y-87618454D01*
X120701093Y-87879995D01*
X120701093Y-87880004D01*
X110743500Y-87880004D01*
X110743500Y-45218635D01*
X110763185Y-45151596D01*
X110779819Y-45130954D01*
X113202954Y-42707819D01*
X113264277Y-42674334D01*
X113290635Y-42671500D01*
X154819015Y-42671500D01*
X154838286Y-42674037D01*
X154843204Y-42673606D01*
X154843205Y-42673607D01*
X154864598Y-42671735D01*
X154869997Y-42671500D01*
X154877312Y-42671500D01*
X154884493Y-42670233D01*
X154889861Y-42669525D01*
X154897955Y-42668818D01*
X154897956Y-42668816D01*
X154907540Y-42664348D01*
X154915643Y-42657548D01*
X154915645Y-42657548D01*
X154915645Y-42657546D01*
X154917446Y-42656036D01*
X154965944Y-42609788D01*
X155022771Y-42596000D01*
X158928000Y-42596000D01*
X158928000Y-38694588D01*
X158947685Y-38627549D01*
X158957010Y-38614883D01*
X158968171Y-38601581D01*
X158968172Y-38601581D01*
X158981981Y-38585123D01*
X158985622Y-38581150D01*
X158990800Y-38575973D01*
X158990803Y-38575964D01*
X158994984Y-38569995D01*
X158998277Y-38565703D01*
X159003500Y-38559480D01*
X159003500Y-38559478D01*
X159007117Y-38549540D01*
X159008040Y-38539001D01*
X159007725Y-38537826D01*
X159003500Y-38505733D01*
X159003500Y-34564677D01*
X159023185Y-34497638D01*
X159050664Y-34467352D01*
X159070498Y-34451694D01*
X168572422Y-26950175D01*
X168637239Y-26924084D01*
X168649259Y-26923500D01*
X213201365Y-26923500D01*
X213268404Y-26943185D01*
G37*
%TD.AperFunction*%
%TA.AperFunction,Conductor*%
G36*
X126593512Y-49699507D02*
G01*
X126646315Y-49745262D01*
X126666000Y-49812301D01*
X126666000Y-50530633D01*
X126879483Y-50473433D01*
X126879492Y-50473429D01*
X127093578Y-50373600D01*
X127287082Y-50238105D01*
X127454105Y-50071082D01*
X127580868Y-49890048D01*
X127635445Y-49846423D01*
X127704944Y-49839231D01*
X127767298Y-49870753D01*
X127786251Y-49893350D01*
X127880276Y-50037265D01*
X127880284Y-50037276D01*
X128030327Y-50200263D01*
X128032760Y-50202906D01*
X128210424Y-50341189D01*
X128210425Y-50341189D01*
X128210427Y-50341191D01*
X128222431Y-50347687D01*
X128408426Y-50448342D01*
X128621365Y-50521444D01*
X128843431Y-50558500D01*
X129068569Y-50558500D01*
X129290635Y-50521444D01*
X129503574Y-50448342D01*
X129701576Y-50341189D01*
X129879240Y-50202906D01*
X130000594Y-50071082D01*
X130031715Y-50037276D01*
X130031715Y-50037275D01*
X130031722Y-50037268D01*
X130122193Y-49898790D01*
X130175338Y-49853437D01*
X130244569Y-49844013D01*
X130307905Y-49873515D01*
X130329804Y-49898787D01*
X130420278Y-50037268D01*
X130420283Y-50037273D01*
X130420284Y-50037276D01*
X130570327Y-50200263D01*
X130572760Y-50202906D01*
X130750424Y-50341189D01*
X130750425Y-50341189D01*
X130750427Y-50341191D01*
X130762431Y-50347687D01*
X130948426Y-50448342D01*
X131161365Y-50521444D01*
X131383431Y-50558500D01*
X131608569Y-50558500D01*
X131830635Y-50521444D01*
X132043574Y-50448342D01*
X132241576Y-50341189D01*
X132419240Y-50202906D01*
X132540594Y-50071082D01*
X132571715Y-50037276D01*
X132571715Y-50037275D01*
X132571722Y-50037268D01*
X132662193Y-49898790D01*
X132715338Y-49853437D01*
X132784569Y-49844013D01*
X132847905Y-49873515D01*
X132869804Y-49898787D01*
X132960278Y-50037268D01*
X132960283Y-50037273D01*
X132960284Y-50037276D01*
X133110327Y-50200263D01*
X133112760Y-50202906D01*
X133290424Y-50341189D01*
X133290425Y-50341189D01*
X133290427Y-50341191D01*
X133302431Y-50347687D01*
X133488426Y-50448342D01*
X133701365Y-50521444D01*
X133923431Y-50558500D01*
X134141324Y-50558500D01*
X134208363Y-50578185D01*
X134254118Y-50630989D01*
X134264062Y-50700147D01*
X134235037Y-50763703D01*
X134229005Y-50770181D01*
X133451050Y-51548135D01*
X133436259Y-51560769D01*
X133424746Y-51569133D01*
X133377869Y-51621195D01*
X133375639Y-51623545D01*
X133359939Y-51639247D01*
X133359928Y-51639258D01*
X133345948Y-51656521D01*
X133343843Y-51658985D01*
X133296962Y-51711052D01*
X133296957Y-51711059D01*
X133289838Y-51723388D01*
X133278833Y-51739400D01*
X133269873Y-51750466D01*
X133269871Y-51750468D01*
X133238053Y-51812913D01*
X133236505Y-51815765D01*
X133201471Y-51876445D01*
X133197071Y-51889988D01*
X133189630Y-51907951D01*
X133183171Y-51920628D01*
X133183169Y-51920634D01*
X133174099Y-51954486D01*
X133165031Y-51988324D01*
X133164115Y-51991416D01*
X133142457Y-52058074D01*
X133142457Y-52058077D01*
X133140970Y-52072223D01*
X133137427Y-52091344D01*
X133133742Y-52105097D01*
X133130074Y-52175073D01*
X133129820Y-52178304D01*
X133127500Y-52200392D01*
X133127500Y-52222594D01*
X133127415Y-52225839D01*
X133123748Y-52295809D01*
X133125973Y-52309856D01*
X133127500Y-52329256D01*
X133127500Y-58770743D01*
X133125973Y-58790142D01*
X133123748Y-58804188D01*
X133127415Y-58874158D01*
X133127500Y-58877404D01*
X133127500Y-58899610D01*
X133129303Y-58916776D01*
X133129820Y-58921693D01*
X133130074Y-58924925D01*
X133133742Y-58994901D01*
X133137424Y-59008640D01*
X133140969Y-59027767D01*
X133142457Y-59041927D01*
X133153378Y-59075540D01*
X133164121Y-59108604D01*
X133165028Y-59111663D01*
X133174282Y-59146200D01*
X133183171Y-59179373D01*
X133189631Y-59192051D01*
X133197073Y-59210018D01*
X133201470Y-59223550D01*
X133201471Y-59223553D01*
X133201473Y-59223556D01*
X133236521Y-59284262D01*
X133238055Y-59287087D01*
X133247179Y-59304993D01*
X133269868Y-59349524D01*
X133269873Y-59349533D01*
X133278827Y-59360590D01*
X133289838Y-59376610D01*
X133296960Y-59388944D01*
X133296962Y-59388947D01*
X133343846Y-59441017D01*
X133345946Y-59443476D01*
X133359928Y-59460741D01*
X133359930Y-59460744D01*
X133359931Y-59460744D01*
X133375625Y-59476438D01*
X133377846Y-59478777D01*
X133424747Y-59530866D01*
X133436257Y-59539228D01*
X133451052Y-59551865D01*
X137908133Y-64008946D01*
X137920768Y-64023739D01*
X137929132Y-64035251D01*
X137929134Y-64035253D01*
X137981204Y-64082137D01*
X137983559Y-64084372D01*
X137999259Y-64100072D01*
X138016519Y-64114049D01*
X138018976Y-64116147D01*
X138048044Y-64142320D01*
X138071058Y-64163042D01*
X138083364Y-64170146D01*
X138099405Y-64181169D01*
X138110469Y-64190129D01*
X138125103Y-64197585D01*
X138172908Y-64221943D01*
X138175762Y-64223492D01*
X138236442Y-64258526D01*
X138236444Y-64258527D01*
X138249980Y-64262925D01*
X138267949Y-64270367D01*
X138280630Y-64276829D01*
X138348309Y-64294963D01*
X138351411Y-64295882D01*
X138418072Y-64317542D01*
X138428920Y-64318681D01*
X138432221Y-64319029D01*
X138451359Y-64322576D01*
X138465096Y-64326257D01*
X138465095Y-64326257D01*
X138470907Y-64326561D01*
X138535082Y-64329924D01*
X138538298Y-64330177D01*
X138560390Y-64332500D01*
X138582595Y-64332500D01*
X138585838Y-64332584D01*
X138655809Y-64336252D01*
X138669856Y-64334027D01*
X138689256Y-64332500D01*
X160878743Y-64332500D01*
X160898142Y-64334027D01*
X160912190Y-64336252D01*
X160982160Y-64332584D01*
X160985404Y-64332500D01*
X161007609Y-64332500D01*
X161007610Y-64332500D01*
X161029710Y-64330177D01*
X161032911Y-64329925D01*
X161102903Y-64326257D01*
X161116648Y-64322573D01*
X161135769Y-64319029D01*
X161149928Y-64317542D01*
X161216618Y-64295872D01*
X161219669Y-64294969D01*
X161287370Y-64276829D01*
X161300040Y-64270372D01*
X161318017Y-64262925D01*
X161331556Y-64258527D01*
X161392270Y-64223472D01*
X161395051Y-64221961D01*
X161457530Y-64190129D01*
X161468599Y-64181165D01*
X161484618Y-64170156D01*
X161496944Y-64163040D01*
X161549058Y-64116115D01*
X161551449Y-64114074D01*
X161568741Y-64100072D01*
X161584465Y-64084346D01*
X161586795Y-64082137D01*
X161638866Y-64035253D01*
X161647231Y-64023738D01*
X161659860Y-64008951D01*
X164347993Y-61320819D01*
X164409317Y-61287334D01*
X164435675Y-61284500D01*
X183900325Y-61284500D01*
X183967364Y-61304185D01*
X183988006Y-61320819D01*
X187184133Y-64516946D01*
X187196768Y-64531739D01*
X187205132Y-64543251D01*
X187205134Y-64543253D01*
X187257204Y-64590137D01*
X187259559Y-64592372D01*
X187275259Y-64608072D01*
X187292519Y-64622049D01*
X187294976Y-64624147D01*
X187333918Y-64659211D01*
X187347058Y-64671042D01*
X187359364Y-64678146D01*
X187375405Y-64689169D01*
X187386469Y-64698129D01*
X187412078Y-64711177D01*
X187448908Y-64729943D01*
X187451762Y-64731492D01*
X187512442Y-64766526D01*
X187512444Y-64766527D01*
X187525980Y-64770925D01*
X187543949Y-64778367D01*
X187556630Y-64784829D01*
X187624309Y-64802963D01*
X187627411Y-64803882D01*
X187694072Y-64825542D01*
X187704920Y-64826681D01*
X187708221Y-64827029D01*
X187727359Y-64830576D01*
X187741096Y-64834257D01*
X187741095Y-64834257D01*
X187746907Y-64834561D01*
X187811082Y-64837924D01*
X187814298Y-64838177D01*
X187836390Y-64840500D01*
X187858595Y-64840500D01*
X187861838Y-64840584D01*
X187931809Y-64844252D01*
X187945856Y-64842027D01*
X187965256Y-64840500D01*
X199140325Y-64840500D01*
X199207364Y-64860185D01*
X199228006Y-64876819D01*
X206488133Y-72136946D01*
X206500768Y-72151739D01*
X206509132Y-72163251D01*
X206509134Y-72163253D01*
X206561204Y-72210137D01*
X206563560Y-72212373D01*
X206579262Y-72228075D01*
X206596516Y-72242048D01*
X206598982Y-72244154D01*
X206638389Y-72279635D01*
X206651056Y-72291040D01*
X206651058Y-72291041D01*
X206663374Y-72298152D01*
X206679404Y-72309168D01*
X206690470Y-72318129D01*
X206738761Y-72342734D01*
X206752902Y-72349939D01*
X206755739Y-72351478D01*
X206816444Y-72386527D01*
X206829980Y-72390925D01*
X206847949Y-72398367D01*
X206860630Y-72404829D01*
X206928309Y-72422963D01*
X206931411Y-72423882D01*
X206998072Y-72445542D01*
X207008920Y-72446681D01*
X207012221Y-72447029D01*
X207031359Y-72450576D01*
X207045096Y-72454257D01*
X207045095Y-72454257D01*
X207050907Y-72454561D01*
X207115082Y-72457924D01*
X207118298Y-72458177D01*
X207140390Y-72460500D01*
X207162595Y-72460500D01*
X207165838Y-72460584D01*
X207235809Y-72464252D01*
X207249856Y-72462027D01*
X207269256Y-72460500D01*
X209171461Y-72460500D01*
X209238500Y-72480185D01*
X209262689Y-72500516D01*
X209312760Y-72554906D01*
X209380210Y-72607405D01*
X209449899Y-72661647D01*
X209490712Y-72718358D01*
X209494385Y-72788131D01*
X209459754Y-72848814D01*
X209397812Y-72881140D01*
X209373736Y-72883500D01*
X190729350Y-72883500D01*
X190722410Y-72883110D01*
X190700172Y-72880605D01*
X190685229Y-72878921D01*
X190685222Y-72878920D01*
X190641990Y-72881836D01*
X190619376Y-72883360D01*
X190615223Y-72883500D01*
X190603722Y-72883500D01*
X190563166Y-72887150D01*
X190468184Y-72893553D01*
X190468183Y-72893553D01*
X190464391Y-72894509D01*
X190445234Y-72897764D01*
X190441348Y-72898114D01*
X190441342Y-72898115D01*
X190349582Y-72923438D01*
X190257246Y-72946705D01*
X190257232Y-72946710D01*
X190253681Y-72948323D01*
X190235413Y-72954947D01*
X190231652Y-72955985D01*
X190231648Y-72955986D01*
X190231647Y-72955987D01*
X190158449Y-72991237D01*
X190145888Y-72997286D01*
X190059184Y-73036668D01*
X190059181Y-73036669D01*
X190055965Y-73038898D01*
X190039173Y-73048677D01*
X190035658Y-73050370D01*
X190035647Y-73050376D01*
X189958626Y-73106336D01*
X189880374Y-73160549D01*
X189880362Y-73160559D01*
X189877603Y-73163318D01*
X189862837Y-73175930D01*
X189859668Y-73178232D01*
X189793855Y-73247067D01*
X170848224Y-92192699D01*
X170698702Y-92342220D01*
X170698693Y-92342230D01*
X170668970Y-92384681D01*
X170665776Y-92388854D01*
X170630598Y-92430990D01*
X170630594Y-92430997D01*
X170606638Y-92473212D01*
X170603503Y-92478175D01*
X170577412Y-92515438D01*
X170554167Y-92565288D01*
X170551900Y-92569682D01*
X170523238Y-92620197D01*
X170508254Y-92663016D01*
X170505925Y-92668740D01*
X170488044Y-92707087D01*
X170472986Y-92763282D01*
X170471620Y-92767711D01*
X170451392Y-92825524D01*
X170444792Y-92867191D01*
X170443443Y-92873540D01*
X170433314Y-92911346D01*
X170427965Y-92972466D01*
X170427438Y-92976760D01*
X170417362Y-93040382D01*
X170418237Y-93079385D01*
X170418017Y-93086182D01*
X170414884Y-93121996D01*
X170414884Y-93122002D01*
X170420506Y-93186265D01*
X170420727Y-93190278D01*
X170422244Y-93257858D01*
X170429431Y-93292961D01*
X170430456Y-93299997D01*
X170433314Y-93332655D01*
X170444225Y-93373377D01*
X170450833Y-93398036D01*
X170451684Y-93401641D01*
X170465880Y-93470969D01*
X170465882Y-93470975D01*
X170465883Y-93470977D01*
X170478033Y-93501269D01*
X170480379Y-93508308D01*
X170488040Y-93536899D01*
X170488044Y-93536910D01*
X170517999Y-93601149D01*
X170519341Y-93604247D01*
X170546866Y-93672865D01*
X170562543Y-93697814D01*
X170566241Y-93704605D01*
X170577412Y-93728560D01*
X170577412Y-93728561D01*
X170619868Y-93789193D01*
X170621577Y-93791769D01*
X170662600Y-93857056D01*
X170680336Y-93876459D01*
X170685367Y-93882736D01*
X170698698Y-93901776D01*
X170753289Y-93956366D01*
X170755212Y-93958377D01*
X170809367Y-94017624D01*
X170827748Y-94031619D01*
X170834031Y-94037108D01*
X170848224Y-94051301D01*
X170915078Y-94098112D01*
X170982441Y-94149403D01*
X171000195Y-94158449D01*
X171007617Y-94162909D01*
X171021437Y-94172586D01*
X171021436Y-94172586D01*
X171021441Y-94172588D01*
X171021442Y-94172589D01*
X171098127Y-94208348D01*
X171176265Y-94248161D01*
X171188009Y-94251687D01*
X171204743Y-94258063D01*
X171213090Y-94261956D01*
X171249156Y-94271619D01*
X171308816Y-94307983D01*
X171339346Y-94370830D01*
X171331052Y-94440205D01*
X171286567Y-94494084D01*
X171247368Y-94511634D01*
X171227246Y-94516705D01*
X171221995Y-94518543D01*
X171221980Y-94518500D01*
X171218055Y-94519908D01*
X171218161Y-94520199D01*
X171213091Y-94522043D01*
X171213090Y-94522044D01*
X171213088Y-94522044D01*
X171206503Y-94524441D01*
X171201811Y-94525940D01*
X171201657Y-94525982D01*
X171201648Y-94525985D01*
X171115888Y-94567286D01*
X171029178Y-94606671D01*
X171029171Y-94606675D01*
X171028910Y-94606857D01*
X171024621Y-94609574D01*
X171016772Y-94614107D01*
X171016689Y-94613963D01*
X171006179Y-94620119D01*
X171005658Y-94620369D01*
X171005657Y-94620370D01*
X170928626Y-94676336D01*
X170850374Y-94730549D01*
X170850362Y-94730559D01*
X170847603Y-94733318D01*
X170832837Y-94745930D01*
X170829668Y-94748232D01*
X170763855Y-94817067D01*
X166063742Y-99517181D01*
X166002419Y-99550666D01*
X165976061Y-99553500D01*
X140429939Y-99553500D01*
X140362900Y-99533815D01*
X140342258Y-99517181D01*
X139344819Y-98519742D01*
X139311334Y-98458419D01*
X139308500Y-98432061D01*
X139308500Y-98305351D01*
X139328185Y-98238312D01*
X139380989Y-98192557D01*
X139450147Y-98182613D01*
X139513703Y-98211638D01*
X139534075Y-98234227D01*
X139601894Y-98331082D01*
X139768917Y-98498105D01*
X139962421Y-98633600D01*
X140176507Y-98733429D01*
X140176516Y-98733433D01*
X140390000Y-98790634D01*
X140390000Y-98072301D01*
X140409685Y-98005262D01*
X140462489Y-97959507D01*
X140531647Y-97949563D01*
X140604237Y-97960000D01*
X140604238Y-97960000D01*
X140675762Y-97960000D01*
X140675763Y-97960000D01*
X140748353Y-97949563D01*
X140817512Y-97959507D01*
X140870315Y-98005262D01*
X140890000Y-98072301D01*
X140890000Y-98790633D01*
X141103483Y-98733433D01*
X141103492Y-98733429D01*
X141317578Y-98633600D01*
X141511082Y-98498105D01*
X141678105Y-98331082D01*
X141808425Y-98144968D01*
X141863002Y-98101344D01*
X141932501Y-98094151D01*
X141994855Y-98125673D01*
X142011575Y-98144968D01*
X142141894Y-98331082D01*
X142308917Y-98498105D01*
X142502421Y-98633600D01*
X142716507Y-98733429D01*
X142716516Y-98733433D01*
X142930000Y-98790634D01*
X142930000Y-98072301D01*
X142949685Y-98005262D01*
X143002489Y-97959507D01*
X143071647Y-97949563D01*
X143144237Y-97960000D01*
X143144238Y-97960000D01*
X143215762Y-97960000D01*
X143215763Y-97960000D01*
X143288353Y-97949563D01*
X143357512Y-97959507D01*
X143410315Y-98005262D01*
X143430000Y-98072301D01*
X143430000Y-98790633D01*
X143643483Y-98733433D01*
X143643492Y-98733429D01*
X143857578Y-98633600D01*
X144051082Y-98498105D01*
X144218105Y-98331082D01*
X144344868Y-98150048D01*
X144399445Y-98106423D01*
X144468944Y-98099231D01*
X144531298Y-98130753D01*
X144550251Y-98153350D01*
X144644276Y-98297265D01*
X144644284Y-98297276D01*
X144770968Y-98434889D01*
X144796760Y-98462906D01*
X144974424Y-98601189D01*
X144974425Y-98601189D01*
X144974427Y-98601191D01*
X145034314Y-98633600D01*
X145172426Y-98708342D01*
X145385365Y-98781444D01*
X145607431Y-98818500D01*
X145832569Y-98818500D01*
X146054635Y-98781444D01*
X146267574Y-98708342D01*
X146465576Y-98601189D01*
X146643240Y-98462906D01*
X146764594Y-98331082D01*
X146795715Y-98297276D01*
X146795717Y-98297273D01*
X146795722Y-98297268D01*
X146918860Y-98108791D01*
X147009296Y-97902616D01*
X147064564Y-97684368D01*
X147068447Y-97637511D01*
X147083156Y-97460005D01*
X147083156Y-97459994D01*
X147064565Y-97235640D01*
X147064563Y-97235628D01*
X147009296Y-97017385D01*
X146988702Y-96970436D01*
X146918860Y-96811209D01*
X146916302Y-96807294D01*
X146795723Y-96622734D01*
X146795715Y-96622723D01*
X146643243Y-96457097D01*
X146643238Y-96457092D01*
X146465577Y-96318812D01*
X146465572Y-96318808D01*
X146267580Y-96211661D01*
X146267577Y-96211659D01*
X146267574Y-96211658D01*
X146267571Y-96211657D01*
X146267569Y-96211656D01*
X146054637Y-96138556D01*
X145832569Y-96101500D01*
X145607431Y-96101500D01*
X145385362Y-96138556D01*
X145172430Y-96211656D01*
X145172419Y-96211661D01*
X144974427Y-96318808D01*
X144974422Y-96318812D01*
X144796761Y-96457092D01*
X144796756Y-96457097D01*
X144644284Y-96622723D01*
X144644276Y-96622734D01*
X144550251Y-96766650D01*
X144497105Y-96812007D01*
X144427873Y-96821430D01*
X144364538Y-96791928D01*
X144344868Y-96769951D01*
X144218113Y-96588926D01*
X144218108Y-96588920D01*
X144051082Y-96421894D01*
X143857578Y-96286399D01*
X143643492Y-96186570D01*
X143643486Y-96186567D01*
X143430000Y-96129364D01*
X143430000Y-96847698D01*
X143410315Y-96914737D01*
X143357511Y-96960492D01*
X143288355Y-96970436D01*
X143215766Y-96960000D01*
X143215763Y-96960000D01*
X143144237Y-96960000D01*
X143144233Y-96960000D01*
X143071645Y-96970436D01*
X143002487Y-96960492D01*
X142949684Y-96914736D01*
X142930000Y-96847698D01*
X142930000Y-96129364D01*
X142929999Y-96129364D01*
X142716513Y-96186567D01*
X142716507Y-96186570D01*
X142502422Y-96286399D01*
X142502420Y-96286400D01*
X142308926Y-96421886D01*
X142308920Y-96421891D01*
X142141891Y-96588920D01*
X142141890Y-96588922D01*
X142011575Y-96775031D01*
X141956998Y-96818655D01*
X141887499Y-96825848D01*
X141825145Y-96794326D01*
X141808425Y-96775031D01*
X141678109Y-96588922D01*
X141678108Y-96588920D01*
X141511082Y-96421894D01*
X141317578Y-96286399D01*
X141103492Y-96186570D01*
X141103486Y-96186567D01*
X140890000Y-96129364D01*
X140890000Y-96847698D01*
X140870315Y-96914737D01*
X140817511Y-96960492D01*
X140748355Y-96970436D01*
X140675766Y-96960000D01*
X140675763Y-96960000D01*
X140604237Y-96960000D01*
X140604233Y-96960000D01*
X140531645Y-96970436D01*
X140462487Y-96960492D01*
X140409684Y-96914736D01*
X140390000Y-96847698D01*
X140390000Y-96129364D01*
X140389999Y-96129364D01*
X140176513Y-96186567D01*
X140176507Y-96186570D01*
X139962422Y-96286399D01*
X139962420Y-96286400D01*
X139768926Y-96421886D01*
X139768920Y-96421891D01*
X139601891Y-96588920D01*
X139601890Y-96588922D01*
X139475131Y-96769952D01*
X139420554Y-96813577D01*
X139351055Y-96820769D01*
X139288701Y-96789247D01*
X139269752Y-96766656D01*
X139175722Y-96622732D01*
X139141270Y-96585307D01*
X139110348Y-96522654D01*
X139108500Y-96501325D01*
X139108500Y-94464594D01*
X139108799Y-94458513D01*
X139111231Y-94433815D01*
X139113380Y-94412000D01*
X139093908Y-94214299D01*
X139036241Y-94024196D01*
X139036239Y-94024193D01*
X139036239Y-94024191D01*
X138942598Y-93849001D01*
X138942596Y-93848999D01*
X138942595Y-93848996D01*
X138942594Y-93848995D01*
X138942589Y-93848989D01*
X138941686Y-93847771D01*
X138940662Y-93846641D01*
X138912527Y-93812359D01*
X138816568Y-93695432D01*
X138780430Y-93665774D01*
X138775930Y-93661696D01*
X134696234Y-89582000D01*
X139309364Y-89582000D01*
X139366567Y-89795486D01*
X139366570Y-89795492D01*
X139466399Y-90009578D01*
X139601894Y-90203082D01*
X139768917Y-90370105D01*
X139962421Y-90505600D01*
X140176507Y-90605429D01*
X140176516Y-90605433D01*
X140390000Y-90662634D01*
X140390000Y-89944301D01*
X140409685Y-89877262D01*
X140462489Y-89831507D01*
X140531647Y-89821563D01*
X140604237Y-89832000D01*
X140604238Y-89832000D01*
X140675762Y-89832000D01*
X140675763Y-89832000D01*
X140748353Y-89821563D01*
X140817512Y-89831507D01*
X140870315Y-89877262D01*
X140890000Y-89944301D01*
X140890000Y-90662633D01*
X141103483Y-90605433D01*
X141103492Y-90605429D01*
X141317578Y-90505600D01*
X141511078Y-90370108D01*
X141626914Y-90254272D01*
X141688237Y-90220787D01*
X141757929Y-90225771D01*
X141813863Y-90267642D01*
X141830777Y-90298619D01*
X141879110Y-90428203D01*
X141879111Y-90428204D01*
X141966739Y-90545261D01*
X142083796Y-90632889D01*
X142220799Y-90683989D01*
X142248050Y-90686918D01*
X142281345Y-90690499D01*
X142281362Y-90690500D01*
X143060904Y-90690500D01*
X143127943Y-90710185D01*
X143148585Y-90726819D01*
X149405181Y-96983415D01*
X149438666Y-97044738D01*
X149441500Y-97071096D01*
X149441500Y-98358654D01*
X149448011Y-98419202D01*
X149448011Y-98419204D01*
X149485511Y-98519742D01*
X149499111Y-98556204D01*
X149586739Y-98673261D01*
X149703796Y-98760889D01*
X149840799Y-98811989D01*
X149868050Y-98814918D01*
X149901345Y-98818499D01*
X149901362Y-98818500D01*
X151698638Y-98818500D01*
X151698654Y-98818499D01*
X151725692Y-98815591D01*
X151759201Y-98811989D01*
X151896204Y-98760889D01*
X152013261Y-98673261D01*
X152100889Y-98556204D01*
X152146138Y-98434887D01*
X152188009Y-98378956D01*
X152253474Y-98354539D01*
X152321746Y-98369391D01*
X152353545Y-98394236D01*
X152416760Y-98462906D01*
X152594424Y-98601189D01*
X152594425Y-98601189D01*
X152594427Y-98601191D01*
X152654314Y-98633600D01*
X152792426Y-98708342D01*
X153005365Y-98781444D01*
X153227431Y-98818500D01*
X153452569Y-98818500D01*
X153674635Y-98781444D01*
X153887574Y-98708342D01*
X154085576Y-98601189D01*
X154263240Y-98462906D01*
X154384594Y-98331082D01*
X154415715Y-98297276D01*
X154415715Y-98297275D01*
X154415722Y-98297268D01*
X154506193Y-98158790D01*
X154559338Y-98113437D01*
X154628569Y-98104013D01*
X154691905Y-98133515D01*
X154713804Y-98158787D01*
X154804278Y-98297268D01*
X154804283Y-98297273D01*
X154804284Y-98297276D01*
X154930968Y-98434889D01*
X154956760Y-98462906D01*
X155134424Y-98601189D01*
X155134425Y-98601189D01*
X155134427Y-98601191D01*
X155194314Y-98633600D01*
X155332426Y-98708342D01*
X155545365Y-98781444D01*
X155767431Y-98818500D01*
X155992569Y-98818500D01*
X156214635Y-98781444D01*
X156427574Y-98708342D01*
X156625576Y-98601189D01*
X156803240Y-98462906D01*
X156924594Y-98331082D01*
X156955715Y-98297276D01*
X156955715Y-98297275D01*
X156955722Y-98297268D01*
X157046193Y-98158790D01*
X157099338Y-98113437D01*
X157168569Y-98104013D01*
X157231905Y-98133515D01*
X157253804Y-98158787D01*
X157344278Y-98297268D01*
X157344283Y-98297273D01*
X157344284Y-98297276D01*
X157470968Y-98434889D01*
X157496760Y-98462906D01*
X157674424Y-98601189D01*
X157674425Y-98601189D01*
X157674427Y-98601191D01*
X157734314Y-98633600D01*
X157872426Y-98708342D01*
X158085365Y-98781444D01*
X158307431Y-98818500D01*
X158532569Y-98818500D01*
X158754635Y-98781444D01*
X158967574Y-98708342D01*
X159165576Y-98601189D01*
X159343240Y-98462906D01*
X159464594Y-98331082D01*
X159495715Y-98297276D01*
X159495715Y-98297275D01*
X159495722Y-98297268D01*
X159586193Y-98158790D01*
X159639338Y-98113437D01*
X159708569Y-98104013D01*
X159771905Y-98133515D01*
X159793804Y-98158787D01*
X159884278Y-98297268D01*
X159884283Y-98297273D01*
X159884284Y-98297276D01*
X160010968Y-98434889D01*
X160036760Y-98462906D01*
X160214424Y-98601189D01*
X160214425Y-98601189D01*
X160214427Y-98601191D01*
X160274314Y-98633600D01*
X160412426Y-98708342D01*
X160625365Y-98781444D01*
X160847431Y-98818500D01*
X161072569Y-98818500D01*
X161294635Y-98781444D01*
X161507574Y-98708342D01*
X161705576Y-98601189D01*
X161883240Y-98462906D01*
X162004594Y-98331082D01*
X162035715Y-98297276D01*
X162035715Y-98297275D01*
X162035722Y-98297268D01*
X162126193Y-98158790D01*
X162179338Y-98113437D01*
X162248569Y-98104013D01*
X162311905Y-98133515D01*
X162333804Y-98158787D01*
X162424278Y-98297268D01*
X162424283Y-98297273D01*
X162424284Y-98297276D01*
X162550968Y-98434889D01*
X162576760Y-98462906D01*
X162754424Y-98601189D01*
X162754425Y-98601189D01*
X162754427Y-98601191D01*
X162814314Y-98633600D01*
X162952426Y-98708342D01*
X163165365Y-98781444D01*
X163387431Y-98818500D01*
X163612569Y-98818500D01*
X163834635Y-98781444D01*
X164047574Y-98708342D01*
X164245576Y-98601189D01*
X164423240Y-98462906D01*
X164544594Y-98331082D01*
X164575715Y-98297276D01*
X164575717Y-98297273D01*
X164575722Y-98297268D01*
X164698860Y-98108791D01*
X164789296Y-97902616D01*
X164844564Y-97684368D01*
X164848447Y-97637511D01*
X164863156Y-97460005D01*
X164863156Y-97459994D01*
X164844565Y-97235640D01*
X164844563Y-97235628D01*
X164789296Y-97017385D01*
X164768702Y-96970436D01*
X164698860Y-96811209D01*
X164696302Y-96807294D01*
X164575723Y-96622734D01*
X164575715Y-96622723D01*
X164423243Y-96457097D01*
X164423238Y-96457092D01*
X164245577Y-96318812D01*
X164245572Y-96318808D01*
X164047580Y-96211661D01*
X164047577Y-96211659D01*
X164047574Y-96211658D01*
X164047571Y-96211657D01*
X164047569Y-96211656D01*
X163834637Y-96138556D01*
X163612569Y-96101500D01*
X163387431Y-96101500D01*
X163165362Y-96138556D01*
X162952430Y-96211656D01*
X162952419Y-96211661D01*
X162754427Y-96318808D01*
X162754422Y-96318812D01*
X162576761Y-96457092D01*
X162576756Y-96457097D01*
X162424284Y-96622723D01*
X162424276Y-96622734D01*
X162333808Y-96761206D01*
X162280662Y-96806562D01*
X162211431Y-96815986D01*
X162148095Y-96786484D01*
X162126192Y-96761206D01*
X162035723Y-96622734D01*
X162035715Y-96622723D01*
X161883243Y-96457097D01*
X161883238Y-96457092D01*
X161705577Y-96318812D01*
X161705572Y-96318808D01*
X161507580Y-96211661D01*
X161507577Y-96211659D01*
X161507574Y-96211658D01*
X161507571Y-96211657D01*
X161507569Y-96211656D01*
X161294637Y-96138556D01*
X161072569Y-96101500D01*
X160847431Y-96101500D01*
X160625362Y-96138556D01*
X160412430Y-96211656D01*
X160412419Y-96211661D01*
X160214427Y-96318808D01*
X160214422Y-96318812D01*
X160036761Y-96457092D01*
X160036756Y-96457097D01*
X159884284Y-96622723D01*
X159884276Y-96622734D01*
X159793808Y-96761206D01*
X159740662Y-96806562D01*
X159671431Y-96815986D01*
X159608095Y-96786484D01*
X159586192Y-96761206D01*
X159495723Y-96622734D01*
X159495715Y-96622723D01*
X159343243Y-96457097D01*
X159343238Y-96457092D01*
X159165577Y-96318812D01*
X159165572Y-96318808D01*
X158967580Y-96211661D01*
X158967577Y-96211659D01*
X158967574Y-96211658D01*
X158967571Y-96211657D01*
X158967569Y-96211656D01*
X158754637Y-96138556D01*
X158532569Y-96101500D01*
X158307431Y-96101500D01*
X158085362Y-96138556D01*
X157872430Y-96211656D01*
X157872419Y-96211661D01*
X157674427Y-96318808D01*
X157674422Y-96318812D01*
X157496761Y-96457092D01*
X157496756Y-96457097D01*
X157344284Y-96622723D01*
X157344276Y-96622734D01*
X157253808Y-96761206D01*
X157200662Y-96806562D01*
X157131431Y-96815986D01*
X157068095Y-96786484D01*
X157046192Y-96761206D01*
X156955723Y-96622734D01*
X156955715Y-96622723D01*
X156803243Y-96457097D01*
X156803238Y-96457092D01*
X156625577Y-96318812D01*
X156625572Y-96318808D01*
X156427580Y-96211661D01*
X156427577Y-96211659D01*
X156427574Y-96211658D01*
X156427571Y-96211657D01*
X156427569Y-96211656D01*
X156214637Y-96138556D01*
X155992569Y-96101500D01*
X155767431Y-96101500D01*
X155545362Y-96138556D01*
X155332430Y-96211656D01*
X155332419Y-96211661D01*
X155134427Y-96318808D01*
X155134422Y-96318812D01*
X154956761Y-96457092D01*
X154956756Y-96457097D01*
X154804284Y-96622723D01*
X154804276Y-96622734D01*
X154713808Y-96761206D01*
X154660662Y-96806562D01*
X154591431Y-96815986D01*
X154528095Y-96786484D01*
X154506192Y-96761206D01*
X154415723Y-96622734D01*
X154415715Y-96622723D01*
X154263243Y-96457097D01*
X154263238Y-96457092D01*
X154085577Y-96318812D01*
X154085572Y-96318808D01*
X153887580Y-96211661D01*
X153887577Y-96211659D01*
X153887574Y-96211658D01*
X153887571Y-96211657D01*
X153887569Y-96211656D01*
X153674637Y-96138556D01*
X153452569Y-96101500D01*
X153227431Y-96101500D01*
X153005362Y-96138556D01*
X152792430Y-96211656D01*
X152792419Y-96211661D01*
X152594427Y-96318808D01*
X152594422Y-96318812D01*
X152416761Y-96457092D01*
X152353548Y-96525760D01*
X152293661Y-96561750D01*
X152223823Y-96559649D01*
X152166207Y-96520124D01*
X152146138Y-96485110D01*
X152100889Y-96363796D01*
X152067214Y-96318812D01*
X152013261Y-96246739D01*
X151896204Y-96159111D01*
X151896203Y-96159110D01*
X151759203Y-96108011D01*
X151698654Y-96101500D01*
X151698638Y-96101500D01*
X151427096Y-96101500D01*
X151360057Y-96081815D01*
X151339415Y-96065181D01*
X144574819Y-89300584D01*
X144541334Y-89239261D01*
X144538500Y-89212903D01*
X144538500Y-88433362D01*
X144538499Y-88433345D01*
X144533753Y-88389209D01*
X144531989Y-88372799D01*
X144529222Y-88365381D01*
X144502559Y-88293894D01*
X144480889Y-88235796D01*
X144393261Y-88118739D01*
X144276204Y-88031111D01*
X144276205Y-88031111D01*
X144271958Y-88029527D01*
X144269162Y-88028484D01*
X144213231Y-87986612D01*
X144188816Y-87921147D01*
X144188500Y-87912304D01*
X144188500Y-68777378D01*
X144208185Y-68710339D01*
X144260093Y-68664997D01*
X144344749Y-68625523D01*
X144496985Y-68518925D01*
X144563193Y-68496598D01*
X144568110Y-68496500D01*
X147379890Y-68496500D01*
X147446929Y-68516185D01*
X147451015Y-68518925D01*
X147603251Y-68625523D01*
X147687900Y-68664995D01*
X147810750Y-68722281D01*
X147810752Y-68722281D01*
X147810757Y-68722284D01*
X148031913Y-68781543D01*
X148194832Y-68795796D01*
X148259998Y-68801498D01*
X148260000Y-68801498D01*
X148260002Y-68801498D01*
X148317021Y-68796509D01*
X148488087Y-68781543D01*
X148709243Y-68722284D01*
X148916749Y-68625523D01*
X149068985Y-68518925D01*
X149135193Y-68496598D01*
X149140110Y-68496500D01*
X151951890Y-68496500D01*
X152018929Y-68516185D01*
X152023015Y-68518925D01*
X152175251Y-68625523D01*
X152259900Y-68664995D01*
X152382750Y-68722281D01*
X152382752Y-68722281D01*
X152382757Y-68722284D01*
X152603913Y-68781543D01*
X152766832Y-68795796D01*
X152831998Y-68801498D01*
X152832000Y-68801498D01*
X152832002Y-68801498D01*
X152889021Y-68796509D01*
X153060087Y-68781543D01*
X153281243Y-68722284D01*
X153488749Y-68625523D01*
X153640985Y-68518925D01*
X153707193Y-68496598D01*
X153712110Y-68496500D01*
X156523890Y-68496500D01*
X156590929Y-68516185D01*
X156595015Y-68518925D01*
X156747251Y-68625523D01*
X156831900Y-68664995D01*
X156954750Y-68722281D01*
X156954752Y-68722281D01*
X156954757Y-68722284D01*
X157175913Y-68781543D01*
X157338832Y-68795796D01*
X157403998Y-68801498D01*
X157404000Y-68801498D01*
X157404002Y-68801498D01*
X157461021Y-68796509D01*
X157632087Y-68781543D01*
X157853243Y-68722284D01*
X158060749Y-68625523D01*
X158212985Y-68518925D01*
X158279193Y-68496598D01*
X158284110Y-68496500D01*
X172591402Y-68496500D01*
X172597482Y-68496799D01*
X172611511Y-68498180D01*
X172644000Y-68501380D01*
X172841701Y-68481909D01*
X173031804Y-68424241D01*
X173031803Y-68424240D01*
X173053650Y-68417614D01*
X173053826Y-68417315D01*
X173080274Y-68398332D01*
X173207004Y-68330595D01*
X173360568Y-68204568D01*
X173390238Y-68168413D01*
X173394288Y-68163944D01*
X175893673Y-65664559D01*
X175954994Y-65631076D01*
X175999829Y-65629627D01*
X176071966Y-65640500D01*
X176071967Y-65640500D01*
X176328033Y-65640500D01*
X176328034Y-65640500D01*
X176328041Y-65640499D01*
X176581238Y-65602336D01*
X176581239Y-65602335D01*
X176581243Y-65602335D01*
X176825935Y-65526858D01*
X177056646Y-65415754D01*
X177268219Y-65271505D01*
X177455931Y-65097334D01*
X177615587Y-64897131D01*
X177743622Y-64675369D01*
X177837174Y-64437001D01*
X177894155Y-64187353D01*
X177894618Y-64181175D01*
X177913291Y-63932004D01*
X177913291Y-63931995D01*
X177894156Y-63676656D01*
X177894155Y-63676651D01*
X177894155Y-63676647D01*
X177837174Y-63426999D01*
X177743622Y-63188631D01*
X177615587Y-62966869D01*
X177455931Y-62766666D01*
X177455930Y-62766665D01*
X177455927Y-62766661D01*
X177319786Y-62640342D01*
X177268219Y-62592495D01*
X177210207Y-62552943D01*
X177056649Y-62448248D01*
X177056638Y-62448241D01*
X176825940Y-62337144D01*
X176825921Y-62337137D01*
X176581248Y-62261666D01*
X176581238Y-62261663D01*
X176328041Y-62223500D01*
X176328034Y-62223500D01*
X176071966Y-62223500D01*
X176071958Y-62223500D01*
X175818761Y-62261663D01*
X175818755Y-62261665D01*
X175574061Y-62337143D01*
X175343362Y-62448241D01*
X175343361Y-62448242D01*
X175131780Y-62592495D01*
X174944072Y-62766661D01*
X174784413Y-62966869D01*
X174656378Y-63188630D01*
X174562828Y-63426993D01*
X174562822Y-63427012D01*
X174505844Y-63676651D01*
X174505843Y-63676656D01*
X174486709Y-63931995D01*
X174486709Y-63932004D01*
X174502469Y-64142320D01*
X174487849Y-64210643D01*
X174466497Y-64239267D01*
X172262585Y-66443181D01*
X172201262Y-66476666D01*
X172174904Y-66479500D01*
X158284110Y-66479500D01*
X158217071Y-66459815D01*
X158212986Y-66457075D01*
X158193143Y-66443181D01*
X158060749Y-66350477D01*
X158060745Y-66350475D01*
X157853249Y-66253718D01*
X157853238Y-66253714D01*
X157632089Y-66194457D01*
X157632081Y-66194456D01*
X157404002Y-66174502D01*
X157403998Y-66174502D01*
X157175918Y-66194456D01*
X157175910Y-66194457D01*
X156954761Y-66253714D01*
X156954750Y-66253718D01*
X156747254Y-66350475D01*
X156747252Y-66350476D01*
X156595014Y-66457075D01*
X156528807Y-66479402D01*
X156523890Y-66479500D01*
X153712110Y-66479500D01*
X153645071Y-66459815D01*
X153640986Y-66457075D01*
X153621143Y-66443181D01*
X153488749Y-66350477D01*
X153488745Y-66350475D01*
X153281249Y-66253718D01*
X153281238Y-66253714D01*
X153060089Y-66194457D01*
X153060081Y-66194456D01*
X152832002Y-66174502D01*
X152831998Y-66174502D01*
X152603918Y-66194456D01*
X152603910Y-66194457D01*
X152382761Y-66253714D01*
X152382750Y-66253718D01*
X152175254Y-66350475D01*
X152175252Y-66350476D01*
X152023014Y-66457075D01*
X151956807Y-66479402D01*
X151951890Y-66479500D01*
X149140110Y-66479500D01*
X149073071Y-66459815D01*
X149068986Y-66457075D01*
X149049143Y-66443181D01*
X148916749Y-66350477D01*
X148916745Y-66350475D01*
X148709249Y-66253718D01*
X148709238Y-66253714D01*
X148488089Y-66194457D01*
X148488081Y-66194456D01*
X148260002Y-66174502D01*
X148259998Y-66174502D01*
X148031918Y-66194456D01*
X148031910Y-66194457D01*
X147810761Y-66253714D01*
X147810750Y-66253718D01*
X147603254Y-66350475D01*
X147603252Y-66350476D01*
X147451014Y-66457075D01*
X147384807Y-66479402D01*
X147379890Y-66479500D01*
X144568110Y-66479500D01*
X144501071Y-66459815D01*
X144496986Y-66457075D01*
X144477143Y-66443181D01*
X144344749Y-66350477D01*
X144344745Y-66350475D01*
X144137249Y-66253718D01*
X144137238Y-66253714D01*
X143916089Y-66194457D01*
X143916081Y-66194456D01*
X143688002Y-66174502D01*
X143687998Y-66174502D01*
X143459918Y-66194456D01*
X143459910Y-66194457D01*
X143238761Y-66253714D01*
X143238750Y-66253718D01*
X143031254Y-66350475D01*
X143031252Y-66350476D01*
X143031249Y-66350477D01*
X143031251Y-66350477D01*
X142843700Y-66481802D01*
X142843698Y-66481803D01*
X142843695Y-66481806D01*
X142681806Y-66643695D01*
X142681803Y-66643698D01*
X142681802Y-66643700D01*
X142599767Y-66760856D01*
X142550476Y-66831252D01*
X142550475Y-66831254D01*
X142453718Y-67038750D01*
X142453714Y-67038761D01*
X142394457Y-67259910D01*
X142394456Y-67259917D01*
X142387657Y-67337628D01*
X142362204Y-67402696D01*
X142359984Y-67405482D01*
X142337405Y-67432994D01*
X142315004Y-67474906D01*
X142243758Y-67608196D01*
X142186091Y-67798296D01*
X142166620Y-67996000D01*
X142171201Y-68042517D01*
X142171500Y-68048597D01*
X142171500Y-87912304D01*
X142151815Y-87979343D01*
X142099011Y-88025098D01*
X142090842Y-88028482D01*
X142088041Y-88029527D01*
X142083795Y-88031111D01*
X141966739Y-88118739D01*
X141879111Y-88235795D01*
X141830777Y-88365381D01*
X141788905Y-88421314D01*
X141723441Y-88445730D01*
X141655168Y-88430878D01*
X141626915Y-88409727D01*
X141511082Y-88293894D01*
X141317578Y-88158399D01*
X141103492Y-88058570D01*
X141103486Y-88058567D01*
X140890000Y-88001364D01*
X140890000Y-88719698D01*
X140870315Y-88786737D01*
X140817511Y-88832492D01*
X140748355Y-88842436D01*
X140675766Y-88832000D01*
X140675763Y-88832000D01*
X140604237Y-88832000D01*
X140604233Y-88832000D01*
X140531645Y-88842436D01*
X140462487Y-88832492D01*
X140409684Y-88786736D01*
X140390000Y-88719698D01*
X140390000Y-88001364D01*
X140389999Y-88001364D01*
X140176513Y-88058567D01*
X140176507Y-88058570D01*
X139962422Y-88158399D01*
X139962420Y-88158400D01*
X139768926Y-88293886D01*
X139768920Y-88293891D01*
X139601891Y-88460920D01*
X139601886Y-88460926D01*
X139466400Y-88654420D01*
X139466399Y-88654422D01*
X139366570Y-88868507D01*
X139366567Y-88868513D01*
X139309364Y-89081999D01*
X139309364Y-89082000D01*
X140026653Y-89082000D01*
X140093692Y-89101685D01*
X140139447Y-89154489D01*
X140149391Y-89223647D01*
X140145631Y-89240933D01*
X140140000Y-89260111D01*
X140140000Y-89403888D01*
X140145631Y-89423067D01*
X140145630Y-89492936D01*
X140107855Y-89551714D01*
X140044299Y-89580738D01*
X140026653Y-89582000D01*
X139309364Y-89582000D01*
X134696234Y-89582000D01*
X133556818Y-88442584D01*
X133523333Y-88381261D01*
X133520499Y-88354903D01*
X133520499Y-86891426D01*
X133520499Y-85320572D01*
X133520797Y-85314529D01*
X133525380Y-85268000D01*
X133505908Y-85070299D01*
X133448241Y-84880196D01*
X133448239Y-84880193D01*
X133448239Y-84880191D01*
X133354598Y-84705001D01*
X133354594Y-84704994D01*
X133228568Y-84551432D01*
X133192436Y-84521779D01*
X133187935Y-84517700D01*
X132266817Y-83596582D01*
X132233333Y-83535260D01*
X132230500Y-83508911D01*
X132230500Y-82417760D01*
X132250184Y-82350725D01*
X132252901Y-82346674D01*
X132272589Y-82318558D01*
X132361956Y-82126910D01*
X132372224Y-82088586D01*
X132408590Y-82028925D01*
X132471436Y-81998396D01*
X132540812Y-82006690D01*
X132594690Y-82051175D01*
X132611775Y-82088586D01*
X132622041Y-82126902D01*
X132622042Y-82126904D01*
X132622044Y-82126910D01*
X132701391Y-82297071D01*
X132711410Y-82318556D01*
X132711411Y-82318558D01*
X132832700Y-82491778D01*
X132982221Y-82641299D01*
X132982224Y-82641301D01*
X133155442Y-82762589D01*
X133347090Y-82851956D01*
X133551345Y-82906686D01*
X133701812Y-82919850D01*
X133761998Y-82925116D01*
X133762000Y-82925116D01*
X133762002Y-82925116D01*
X133814663Y-82920508D01*
X133972655Y-82906686D01*
X134176910Y-82851956D01*
X134368558Y-82762589D01*
X134541776Y-82641301D01*
X134691301Y-82491776D01*
X134812589Y-82318558D01*
X134901956Y-82126910D01*
X134940439Y-81983287D01*
X134972530Y-81927702D01*
X137759944Y-79140288D01*
X137764413Y-79136238D01*
X137800568Y-79106568D01*
X137926595Y-78953004D01*
X138020241Y-78777804D01*
X138077908Y-78587701D01*
X138092500Y-78439547D01*
X138097380Y-78390000D01*
X138092799Y-78343485D01*
X138092500Y-78337404D01*
X138092500Y-71604597D01*
X138092799Y-71598517D01*
X138094068Y-71585628D01*
X138097380Y-71552000D01*
X138077909Y-71354299D01*
X138020684Y-71165659D01*
X138020320Y-71164343D01*
X137926598Y-70989001D01*
X137926594Y-70988994D01*
X137800568Y-70835432D01*
X137764432Y-70805776D01*
X137759930Y-70801696D01*
X136374301Y-69416067D01*
X136370222Y-69411566D01*
X136340567Y-69375430D01*
X136187005Y-69249405D01*
X136186998Y-69249401D01*
X136011654Y-69155678D01*
X136010330Y-69155312D01*
X135821703Y-69098091D01*
X135689900Y-69085110D01*
X135624000Y-69078620D01*
X135623999Y-69078620D01*
X135577482Y-69083201D01*
X135571402Y-69083500D01*
X133596563Y-69083500D01*
X133529524Y-69063815D01*
X133483769Y-69011011D01*
X133473825Y-68941853D01*
X133494989Y-68888376D01*
X133609094Y-68725417D01*
X133609100Y-68725407D01*
X133702419Y-68525284D01*
X133702424Y-68525270D01*
X133759573Y-68311986D01*
X133759575Y-68311976D01*
X133778821Y-68092000D01*
X133778821Y-68091999D01*
X133759575Y-67872023D01*
X133759573Y-67872013D01*
X133702424Y-67658729D01*
X133702420Y-67658720D01*
X133609098Y-67458590D01*
X133563740Y-67393811D01*
X133034949Y-67922602D01*
X132973626Y-67956087D01*
X132903934Y-67951103D01*
X132848001Y-67909231D01*
X132843460Y-67902743D01*
X132796189Y-67830391D01*
X132796187Y-67830388D01*
X132759503Y-67801836D01*
X132695843Y-67752287D01*
X132695840Y-67752285D01*
X132695488Y-67752012D01*
X132654675Y-67695301D01*
X132651000Y-67625529D01*
X132683969Y-67566477D01*
X133210187Y-67040258D01*
X133145409Y-66994900D01*
X133145407Y-66994899D01*
X132945284Y-66901580D01*
X132945270Y-66901575D01*
X132731986Y-66844426D01*
X132731976Y-66844424D01*
X132512001Y-66825179D01*
X132511999Y-66825179D01*
X132292023Y-66844424D01*
X132292013Y-66844426D01*
X132078729Y-66901575D01*
X132078720Y-66901579D01*
X131878586Y-66994903D01*
X131813812Y-67040257D01*
X131813811Y-67040258D01*
X132342723Y-67569170D01*
X132376208Y-67630493D01*
X132371224Y-67700185D01*
X132329352Y-67756118D01*
X132314059Y-67765906D01*
X132274749Y-67787179D01*
X132274748Y-67787179D01*
X132188626Y-67880733D01*
X132188626Y-67880734D01*
X132187911Y-67882365D01*
X132186340Y-67884233D01*
X132183008Y-67889334D01*
X132182391Y-67888931D01*
X132142952Y-67935849D01*
X132076215Y-67956535D01*
X132008888Y-67937857D01*
X131986677Y-67920230D01*
X131460258Y-67393811D01*
X131460257Y-67393812D01*
X131414903Y-67458586D01*
X131321579Y-67658720D01*
X131321575Y-67658729D01*
X131264426Y-67872013D01*
X131264424Y-67872023D01*
X131245179Y-68091999D01*
X131245179Y-68092000D01*
X131264424Y-68311976D01*
X131264426Y-68311986D01*
X131321575Y-68525270D01*
X131321580Y-68525284D01*
X131414899Y-68725407D01*
X131414900Y-68725409D01*
X131460258Y-68790187D01*
X131989050Y-68261395D01*
X132050373Y-68227910D01*
X132120064Y-68232894D01*
X132175998Y-68274765D01*
X132180539Y-68281254D01*
X132227813Y-68353612D01*
X132328157Y-68431713D01*
X132328160Y-68431714D01*
X132328511Y-68431987D01*
X132369324Y-68488697D01*
X132372999Y-68558470D01*
X132340030Y-68617522D01*
X132069135Y-68888417D01*
X132033859Y-68913118D01*
X131874324Y-68987511D01*
X131874322Y-68987512D01*
X131692217Y-69115023D01*
X131535023Y-69272217D01*
X131407514Y-69454319D01*
X131407512Y-69454323D01*
X131313561Y-69655800D01*
X131256022Y-69870535D01*
X131256021Y-69870542D01*
X131236647Y-70091997D01*
X131236647Y-70092002D01*
X131256021Y-70313457D01*
X131256022Y-70313465D01*
X131313558Y-70528191D01*
X131313559Y-70528193D01*
X131313560Y-70528196D01*
X131407512Y-70729677D01*
X131459444Y-70803844D01*
X131518635Y-70888376D01*
X131540963Y-70954582D01*
X131523953Y-71022349D01*
X131473006Y-71070163D01*
X131417061Y-71083500D01*
X128949096Y-71083500D01*
X128882057Y-71063815D01*
X128861415Y-71047181D01*
X127460819Y-69646585D01*
X127427334Y-69585262D01*
X127424500Y-69558904D01*
X127424500Y-67098109D01*
X127444185Y-67031070D01*
X127446909Y-67027007D01*
X127553523Y-66874749D01*
X127650284Y-66667243D01*
X127709543Y-66446087D01*
X127729498Y-66218000D01*
X127709543Y-65989913D01*
X127650284Y-65768757D01*
X127553523Y-65561251D01*
X127446923Y-65409012D01*
X127424597Y-65342807D01*
X127424499Y-65337889D01*
X127424499Y-62653616D01*
X127424499Y-59920572D01*
X127424797Y-59914529D01*
X127429380Y-59868000D01*
X127409908Y-59670299D01*
X127352241Y-59480196D01*
X127352239Y-59480193D01*
X127352239Y-59480191D01*
X127258598Y-59305001D01*
X127258593Y-59304993D01*
X127225371Y-59264513D01*
X127132568Y-59151431D01*
X127096432Y-59121776D01*
X127091930Y-59117696D01*
X119840819Y-51866584D01*
X119807334Y-51805261D01*
X119804500Y-51778903D01*
X119804500Y-50619695D01*
X119824185Y-50552656D01*
X119876989Y-50506901D01*
X119885150Y-50503519D01*
X119892204Y-50500889D01*
X120009261Y-50413261D01*
X120096889Y-50296204D01*
X120142138Y-50174887D01*
X120184009Y-50118956D01*
X120249474Y-50094539D01*
X120317746Y-50109391D01*
X120349545Y-50134236D01*
X120412760Y-50202906D01*
X120590424Y-50341189D01*
X120590425Y-50341189D01*
X120590427Y-50341191D01*
X120602431Y-50347687D01*
X120788426Y-50448342D01*
X121001365Y-50521444D01*
X121223431Y-50558500D01*
X121448569Y-50558500D01*
X121670635Y-50521444D01*
X121883574Y-50448342D01*
X122081576Y-50341189D01*
X122259240Y-50202906D01*
X122380594Y-50071082D01*
X122411715Y-50037276D01*
X122411715Y-50037275D01*
X122411722Y-50037268D01*
X122502193Y-49898790D01*
X122555338Y-49853437D01*
X122624569Y-49844013D01*
X122687905Y-49873515D01*
X122709804Y-49898787D01*
X122800278Y-50037268D01*
X122800283Y-50037273D01*
X122800284Y-50037276D01*
X122950327Y-50200263D01*
X122952760Y-50202906D01*
X123130424Y-50341189D01*
X123130425Y-50341189D01*
X123130427Y-50341191D01*
X123142431Y-50347687D01*
X123328426Y-50448342D01*
X123541365Y-50521444D01*
X123763431Y-50558500D01*
X123988569Y-50558500D01*
X124210635Y-50521444D01*
X124423574Y-50448342D01*
X124621576Y-50341189D01*
X124799240Y-50202906D01*
X124920594Y-50071082D01*
X124951715Y-50037276D01*
X124951715Y-50037275D01*
X124951722Y-50037268D01*
X125045749Y-49893347D01*
X125098894Y-49847994D01*
X125168125Y-49838570D01*
X125231461Y-49868072D01*
X125251130Y-49890048D01*
X125377890Y-50071078D01*
X125544917Y-50238105D01*
X125738421Y-50373600D01*
X125952507Y-50473429D01*
X125952516Y-50473433D01*
X126166000Y-50530634D01*
X126166000Y-49812301D01*
X126185685Y-49745262D01*
X126238489Y-49699507D01*
X126307647Y-49689563D01*
X126380237Y-49700000D01*
X126380238Y-49700000D01*
X126451762Y-49700000D01*
X126451763Y-49700000D01*
X126524353Y-49689563D01*
X126593512Y-49699507D01*
G37*
%TD.AperFunction*%
%TA.AperFunction,Conductor*%
G36*
X142633692Y-97229685D02*
G01*
X142679447Y-97282489D01*
X142689391Y-97351647D01*
X142685631Y-97368933D01*
X142680000Y-97388111D01*
X142680000Y-97531888D01*
X142685631Y-97551067D01*
X142685630Y-97620936D01*
X142647855Y-97679714D01*
X142584299Y-97708738D01*
X142566653Y-97710000D01*
X141253347Y-97710000D01*
X141186308Y-97690315D01*
X141140553Y-97637511D01*
X141130609Y-97568353D01*
X141134369Y-97551067D01*
X141140000Y-97531888D01*
X141140000Y-97388111D01*
X141134369Y-97368933D01*
X141134370Y-97299064D01*
X141172145Y-97240286D01*
X141235701Y-97211262D01*
X141253347Y-97210000D01*
X142566653Y-97210000D01*
X142633692Y-97229685D01*
G37*
%TD.AperFunction*%
%TA.AperFunction,Conductor*%
G36*
X212799100Y-42300185D02*
G01*
X212819742Y-42316818D01*
X214071182Y-43568259D01*
X214104666Y-43629580D01*
X214107500Y-43655938D01*
X214107500Y-78112061D01*
X214087815Y-78179100D01*
X214071181Y-78199742D01*
X197853742Y-94417181D01*
X197792419Y-94450666D01*
X197766061Y-94453500D01*
X172191639Y-94453500D01*
X172124600Y-94433815D01*
X172078845Y-94381011D01*
X172068901Y-94311853D01*
X172097926Y-94248297D01*
X172140356Y-94216602D01*
X172226815Y-94177331D01*
X172227087Y-94177141D01*
X172231383Y-94174420D01*
X172234543Y-94172595D01*
X172234558Y-94172589D01*
X172318655Y-94113703D01*
X172405629Y-94053448D01*
X191122258Y-75336819D01*
X191183581Y-75303334D01*
X191209939Y-75300500D01*
X209390648Y-75300500D01*
X209457687Y-75320185D01*
X209503442Y-75372989D01*
X209513386Y-75442147D01*
X209484361Y-75505703D01*
X209461772Y-75526075D01*
X209364922Y-75593890D01*
X209364920Y-75593891D01*
X209197891Y-75760920D01*
X209197886Y-75760926D01*
X209062400Y-75954420D01*
X209062399Y-75954422D01*
X208962570Y-76168507D01*
X208962567Y-76168513D01*
X208905364Y-76381999D01*
X208905364Y-76382000D01*
X209622653Y-76382000D01*
X209689692Y-76401685D01*
X209735447Y-76454489D01*
X209745391Y-76523647D01*
X209741631Y-76540933D01*
X209736000Y-76560111D01*
X209736000Y-76703888D01*
X209741631Y-76723067D01*
X209741630Y-76792936D01*
X209703855Y-76851714D01*
X209640299Y-76880738D01*
X209622653Y-76882000D01*
X208905364Y-76882000D01*
X208962567Y-77095486D01*
X208962570Y-77095492D01*
X209062399Y-77309578D01*
X209197894Y-77503082D01*
X209364917Y-77670105D01*
X209558421Y-77805600D01*
X209772507Y-77905429D01*
X209772516Y-77905433D01*
X209986000Y-77962634D01*
X209986000Y-77244301D01*
X210005685Y-77177262D01*
X210058489Y-77131507D01*
X210127647Y-77121563D01*
X210200237Y-77132000D01*
X210200238Y-77132000D01*
X210271762Y-77132000D01*
X210271763Y-77132000D01*
X210344352Y-77121563D01*
X210413510Y-77131507D01*
X210466314Y-77177261D01*
X210485999Y-77244301D01*
X210485999Y-77962633D01*
X210699483Y-77905433D01*
X210699492Y-77905429D01*
X210913578Y-77805600D01*
X211107082Y-77670105D01*
X211274105Y-77503082D01*
X211409600Y-77309578D01*
X211509429Y-77095492D01*
X211509432Y-77095486D01*
X211566636Y-76882000D01*
X210849347Y-76882000D01*
X210782308Y-76862315D01*
X210736553Y-76809511D01*
X210726609Y-76740353D01*
X210730369Y-76723067D01*
X210736000Y-76703888D01*
X210736000Y-76560111D01*
X210730369Y-76540933D01*
X210730370Y-76471064D01*
X210768145Y-76412286D01*
X210831701Y-76383262D01*
X210849347Y-76382000D01*
X211566636Y-76382000D01*
X211566635Y-76381999D01*
X211509432Y-76168513D01*
X211509429Y-76168507D01*
X211409600Y-75954422D01*
X211409599Y-75954420D01*
X211274113Y-75760926D01*
X211274108Y-75760920D01*
X211107082Y-75593894D01*
X210926197Y-75467236D01*
X210882572Y-75412659D01*
X210875380Y-75343160D01*
X210906902Y-75280806D01*
X210938300Y-75256608D01*
X210981576Y-75233189D01*
X211159240Y-75094906D01*
X211258614Y-74986957D01*
X211311715Y-74929276D01*
X211311716Y-74929274D01*
X211311722Y-74929268D01*
X211434860Y-74740791D01*
X211525296Y-74534616D01*
X211580564Y-74316368D01*
X211599156Y-74092000D01*
X211580564Y-73867632D01*
X211525296Y-73649384D01*
X211434860Y-73443209D01*
X211311722Y-73254732D01*
X211311719Y-73254729D01*
X211311715Y-73254723D01*
X211159243Y-73089097D01*
X211159238Y-73089092D01*
X210981577Y-72950812D01*
X210981578Y-72950812D01*
X210981576Y-72950811D01*
X210945070Y-72931055D01*
X210895479Y-72881836D01*
X210880371Y-72813619D01*
X210904541Y-72748064D01*
X210945070Y-72712945D01*
X210945084Y-72712936D01*
X210981576Y-72693189D01*
X211159240Y-72554906D01*
X211307421Y-72393940D01*
X211311715Y-72389276D01*
X211311716Y-72389274D01*
X211311722Y-72389268D01*
X211434860Y-72200791D01*
X211525296Y-71994616D01*
X211580564Y-71776368D01*
X211580565Y-71776359D01*
X211599156Y-71552005D01*
X211599156Y-71551994D01*
X211580565Y-71327640D01*
X211580563Y-71327628D01*
X211566531Y-71272219D01*
X211525296Y-71109384D01*
X211434860Y-70903209D01*
X211311722Y-70714732D01*
X211311719Y-70714729D01*
X211311715Y-70714723D01*
X211159243Y-70549097D01*
X211159238Y-70549092D01*
X210981577Y-70410812D01*
X210981578Y-70410812D01*
X210981576Y-70410811D01*
X210945070Y-70391055D01*
X210895479Y-70341836D01*
X210880371Y-70273619D01*
X210904541Y-70208064D01*
X210945070Y-70172945D01*
X210945084Y-70172936D01*
X210981576Y-70153189D01*
X211159240Y-70014906D01*
X211292138Y-69870542D01*
X211311715Y-69849276D01*
X211311716Y-69849274D01*
X211311722Y-69849268D01*
X211434860Y-69660791D01*
X211525296Y-69454616D01*
X211580564Y-69236368D01*
X211587244Y-69155759D01*
X211599156Y-69012005D01*
X211599156Y-69011994D01*
X211580565Y-68787640D01*
X211580563Y-68787628D01*
X211549508Y-68664995D01*
X211525296Y-68569384D01*
X211434860Y-68363209D01*
X211428589Y-68353611D01*
X211311723Y-68174734D01*
X211311715Y-68174723D01*
X211159243Y-68009097D01*
X211159238Y-68009092D01*
X210994325Y-67880734D01*
X210981576Y-67870811D01*
X210945070Y-67851055D01*
X210895479Y-67801836D01*
X210880371Y-67733619D01*
X210904541Y-67668064D01*
X210945070Y-67632945D01*
X210949601Y-67630493D01*
X210981576Y-67613189D01*
X211159240Y-67474906D01*
X211311722Y-67309268D01*
X211434860Y-67120791D01*
X211525296Y-66914616D01*
X211580564Y-66696368D01*
X211582977Y-66667249D01*
X211599156Y-66472005D01*
X211599156Y-66471994D01*
X211580565Y-66247640D01*
X211580563Y-66247628D01*
X211525296Y-66029385D01*
X211507984Y-65989918D01*
X211434860Y-65823209D01*
X211399287Y-65768761D01*
X211315490Y-65640500D01*
X211311722Y-65634732D01*
X211311719Y-65634729D01*
X211311715Y-65634723D01*
X211159243Y-65469097D01*
X211159238Y-65469092D01*
X210990671Y-65337890D01*
X210981576Y-65330811D01*
X210945070Y-65311055D01*
X210895479Y-65261836D01*
X210880371Y-65193619D01*
X210904541Y-65128064D01*
X210945070Y-65092945D01*
X210945084Y-65092936D01*
X210981576Y-65073189D01*
X211159240Y-64934906D01*
X211307421Y-64773940D01*
X211311715Y-64769276D01*
X211311716Y-64769274D01*
X211311722Y-64769268D01*
X211434860Y-64580791D01*
X211525296Y-64374616D01*
X211580564Y-64156368D01*
X211586530Y-64084372D01*
X211599156Y-63932005D01*
X211599156Y-63931994D01*
X211580565Y-63707640D01*
X211580563Y-63707628D01*
X211572719Y-63676651D01*
X211525296Y-63489384D01*
X211434860Y-63283209D01*
X211311722Y-63094732D01*
X211311719Y-63094729D01*
X211311715Y-63094723D01*
X211159243Y-62929097D01*
X211159238Y-62929092D01*
X210981577Y-62790812D01*
X210981572Y-62790808D01*
X210945068Y-62771053D01*
X210895478Y-62721833D01*
X210880371Y-62653616D01*
X210904542Y-62588061D01*
X210945069Y-62552945D01*
X210981576Y-62533189D01*
X211159240Y-62394906D01*
X211307421Y-62233940D01*
X211311715Y-62229276D01*
X211311716Y-62229274D01*
X211311722Y-62229268D01*
X211434860Y-62040791D01*
X211525296Y-61834616D01*
X211580564Y-61616368D01*
X211599156Y-61392000D01*
X211591879Y-61304185D01*
X211580565Y-61167640D01*
X211580563Y-61167628D01*
X211525296Y-60949385D01*
X211434859Y-60743207D01*
X211311723Y-60554734D01*
X211311715Y-60554723D01*
X211159243Y-60389097D01*
X211159238Y-60389092D01*
X211029594Y-60288185D01*
X210981576Y-60250811D01*
X210945070Y-60231055D01*
X210895479Y-60181836D01*
X210880371Y-60113619D01*
X210904541Y-60048064D01*
X210945070Y-60012945D01*
X210945084Y-60012936D01*
X210981576Y-59993189D01*
X211159240Y-59854906D01*
X211311722Y-59689268D01*
X211434860Y-59500791D01*
X211525296Y-59294616D01*
X211580564Y-59076368D01*
X211583418Y-59041927D01*
X211599156Y-58852005D01*
X211599156Y-58851994D01*
X211580565Y-58627640D01*
X211580563Y-58627628D01*
X211575837Y-58608967D01*
X211525296Y-58409384D01*
X211434860Y-58203209D01*
X211428855Y-58194018D01*
X211320302Y-58027865D01*
X211311722Y-58014732D01*
X211311719Y-58014729D01*
X211311715Y-58014723D01*
X211159243Y-57849097D01*
X211159238Y-57849092D01*
X210981577Y-57710812D01*
X210981578Y-57710812D01*
X210981576Y-57710811D01*
X210945070Y-57691055D01*
X210895479Y-57641836D01*
X210880371Y-57573619D01*
X210904541Y-57508064D01*
X210945070Y-57472945D01*
X210948847Y-57470901D01*
X210981576Y-57453189D01*
X211159240Y-57314906D01*
X211311722Y-57149268D01*
X211434860Y-56960791D01*
X211525296Y-56754616D01*
X211580564Y-56536368D01*
X211580565Y-56536359D01*
X211599156Y-56312005D01*
X211599156Y-56311994D01*
X211580565Y-56087640D01*
X211580563Y-56087628D01*
X211564015Y-56022281D01*
X211525296Y-55869384D01*
X211434860Y-55663209D01*
X211311722Y-55474732D01*
X211311719Y-55474729D01*
X211311715Y-55474723D01*
X211159243Y-55309097D01*
X211159238Y-55309092D01*
X211029594Y-55208185D01*
X210981576Y-55170811D01*
X210981575Y-55170810D01*
X210981572Y-55170808D01*
X210945068Y-55151053D01*
X210895478Y-55101833D01*
X210880371Y-55033616D01*
X210904542Y-54968061D01*
X210945069Y-54932945D01*
X210981576Y-54913189D01*
X211159240Y-54774906D01*
X211311722Y-54609268D01*
X211434860Y-54420791D01*
X211525296Y-54214616D01*
X211580564Y-53996368D01*
X211580565Y-53996359D01*
X211599156Y-53772005D01*
X211599156Y-53771994D01*
X211580565Y-53547640D01*
X211580563Y-53547628D01*
X211562629Y-53476809D01*
X211525296Y-53329384D01*
X211434860Y-53123209D01*
X211311722Y-52934732D01*
X211311719Y-52934729D01*
X211311715Y-52934723D01*
X211159243Y-52769097D01*
X211159238Y-52769092D01*
X211035137Y-52672500D01*
X210981576Y-52630811D01*
X210945070Y-52611055D01*
X210895479Y-52561836D01*
X210880371Y-52493619D01*
X210904541Y-52428064D01*
X210945070Y-52392945D01*
X210948841Y-52390904D01*
X210981576Y-52373189D01*
X211159240Y-52234906D01*
X211278739Y-52105097D01*
X211311715Y-52069276D01*
X211311716Y-52069274D01*
X211311722Y-52069268D01*
X211434860Y-51880791D01*
X211525296Y-51674616D01*
X211580564Y-51456368D01*
X211580565Y-51456359D01*
X211599156Y-51232005D01*
X211599156Y-51231994D01*
X211580565Y-51007640D01*
X211580563Y-51007628D01*
X211554694Y-50905473D01*
X211525296Y-50789384D01*
X211434860Y-50583209D01*
X211420568Y-50561334D01*
X211346744Y-50448338D01*
X211311722Y-50394732D01*
X211311719Y-50394729D01*
X211311715Y-50394723D01*
X211159243Y-50229097D01*
X211159238Y-50229092D01*
X211005447Y-50109391D01*
X210981577Y-50090811D01*
X210938303Y-50067393D01*
X210888713Y-50018173D01*
X210873605Y-49949957D01*
X210897775Y-49884401D01*
X210926198Y-49856763D01*
X211107079Y-49730108D01*
X211274105Y-49563082D01*
X211409600Y-49369578D01*
X211509429Y-49155492D01*
X211509432Y-49155486D01*
X211566636Y-48942000D01*
X210849347Y-48942000D01*
X210782308Y-48922315D01*
X210736553Y-48869511D01*
X210726609Y-48800353D01*
X210730369Y-48783067D01*
X210736000Y-48763888D01*
X210736000Y-48620111D01*
X210730369Y-48600933D01*
X210730370Y-48531064D01*
X210768145Y-48472286D01*
X210831701Y-48443262D01*
X210849347Y-48442000D01*
X211566636Y-48442000D01*
X211566635Y-48441999D01*
X211509432Y-48228513D01*
X211509429Y-48228507D01*
X211409600Y-48014422D01*
X211409599Y-48014420D01*
X211274113Y-47820926D01*
X211274108Y-47820920D01*
X211107082Y-47653894D01*
X210926197Y-47527236D01*
X210882572Y-47472659D01*
X210875380Y-47403160D01*
X210906902Y-47340806D01*
X210938300Y-47316608D01*
X210981576Y-47293189D01*
X211159240Y-47154906D01*
X211311722Y-46989268D01*
X211434860Y-46800791D01*
X211525296Y-46594616D01*
X211580564Y-46376368D01*
X211580565Y-46376359D01*
X211599156Y-46152005D01*
X211599156Y-46151994D01*
X211580565Y-45927640D01*
X211580563Y-45927628D01*
X211535961Y-45751500D01*
X211525296Y-45709384D01*
X211434860Y-45503209D01*
X211424403Y-45487204D01*
X211315490Y-45320500D01*
X211311722Y-45314732D01*
X211311719Y-45314729D01*
X211311715Y-45314723D01*
X211159243Y-45149097D01*
X211159238Y-45149092D01*
X210981577Y-45010812D01*
X210981578Y-45010812D01*
X210981576Y-45010811D01*
X210945070Y-44991055D01*
X210895479Y-44941836D01*
X210880371Y-44873619D01*
X210904541Y-44808064D01*
X210945070Y-44772945D01*
X210945084Y-44772936D01*
X210981576Y-44753189D01*
X211159240Y-44614906D01*
X211311722Y-44449268D01*
X211434860Y-44260791D01*
X211525296Y-44054616D01*
X211580564Y-43836368D01*
X211581087Y-43830059D01*
X211599156Y-43612005D01*
X211599156Y-43611994D01*
X211580565Y-43387640D01*
X211580563Y-43387628D01*
X211572719Y-43356651D01*
X211525296Y-43169384D01*
X211434860Y-42963209D01*
X211417134Y-42936078D01*
X211368062Y-42860967D01*
X211311722Y-42774732D01*
X211311719Y-42774729D01*
X211311715Y-42774723D01*
X211159243Y-42609097D01*
X211159238Y-42609092D01*
X211022101Y-42502353D01*
X210981288Y-42445642D01*
X210977615Y-42375869D01*
X211012246Y-42315186D01*
X211074188Y-42282860D01*
X211098264Y-42280500D01*
X212732061Y-42280500D01*
X212799100Y-42300185D01*
G37*
%TD.AperFunction*%
%TA.AperFunction,Conductor*%
G36*
X167711364Y-47080185D02*
G01*
X167732006Y-47096819D01*
X172452133Y-51816946D01*
X172464768Y-51831739D01*
X172473132Y-51843251D01*
X172473134Y-51843253D01*
X172525204Y-51890137D01*
X172527560Y-51892373D01*
X172543262Y-51908075D01*
X172560516Y-51922048D01*
X172562982Y-51924154D01*
X172596677Y-51954492D01*
X172615056Y-51971040D01*
X172627374Y-51978152D01*
X172643405Y-51989169D01*
X172654471Y-51998130D01*
X172716917Y-52029948D01*
X172719763Y-52031493D01*
X172780444Y-52066527D01*
X172793976Y-52070923D01*
X172811949Y-52078368D01*
X172824630Y-52084830D01*
X172892338Y-52102971D01*
X172895417Y-52103884D01*
X172962072Y-52125542D01*
X172973642Y-52126757D01*
X172976222Y-52127029D01*
X172995360Y-52130576D01*
X173009097Y-52134257D01*
X173009096Y-52134257D01*
X173014481Y-52134539D01*
X173079084Y-52137924D01*
X173082294Y-52138177D01*
X173104390Y-52140500D01*
X173126596Y-52140500D01*
X173129839Y-52140584D01*
X173199810Y-52144252D01*
X173213857Y-52142027D01*
X173233257Y-52140500D01*
X209171461Y-52140500D01*
X209238500Y-52160185D01*
X209262689Y-52180516D01*
X209312760Y-52234906D01*
X209490424Y-52373189D01*
X209490429Y-52373191D01*
X209490431Y-52373193D01*
X209526930Y-52392946D01*
X209576520Y-52442165D01*
X209591628Y-52510382D01*
X209567457Y-52575937D01*
X209526930Y-52611054D01*
X209490431Y-52630806D01*
X209490422Y-52630812D01*
X209312761Y-52769092D01*
X209312756Y-52769097D01*
X209160284Y-52934723D01*
X209160276Y-52934734D01*
X209037140Y-53123207D01*
X208946703Y-53329385D01*
X208891436Y-53547628D01*
X208891434Y-53547640D01*
X208872844Y-53771994D01*
X208872844Y-53772005D01*
X208891434Y-53996359D01*
X208891436Y-53996371D01*
X208946703Y-54214614D01*
X209037140Y-54420792D01*
X209160276Y-54609265D01*
X209160284Y-54609276D01*
X209300531Y-54761622D01*
X209312760Y-54774906D01*
X209490424Y-54913189D01*
X209526930Y-54932945D01*
X209576519Y-54982162D01*
X209591629Y-55050378D01*
X209567459Y-55115934D01*
X209526932Y-55151052D01*
X209490432Y-55170805D01*
X209490422Y-55170812D01*
X209312761Y-55309092D01*
X209312756Y-55309097D01*
X209160284Y-55474723D01*
X209160276Y-55474734D01*
X209037140Y-55663207D01*
X208946703Y-55869385D01*
X208891436Y-56087628D01*
X208891434Y-56087640D01*
X208872844Y-56311994D01*
X208872844Y-56312005D01*
X208891434Y-56536359D01*
X208891436Y-56536371D01*
X208946703Y-56754614D01*
X209037140Y-56960792D01*
X209160276Y-57149265D01*
X209160284Y-57149276D01*
X209312756Y-57314902D01*
X209312760Y-57314906D01*
X209490424Y-57453189D01*
X209490429Y-57453191D01*
X209490431Y-57453193D01*
X209526930Y-57472946D01*
X209576520Y-57522165D01*
X209591628Y-57590382D01*
X209567457Y-57655937D01*
X209526930Y-57691054D01*
X209490431Y-57710806D01*
X209490422Y-57710812D01*
X209312761Y-57849092D01*
X209312756Y-57849097D01*
X209160284Y-58014723D01*
X209160276Y-58014734D01*
X209037140Y-58203207D01*
X208946703Y-58409385D01*
X208891436Y-58627628D01*
X208891434Y-58627640D01*
X208872844Y-58851994D01*
X208872844Y-58852005D01*
X208891434Y-59076359D01*
X208891436Y-59076371D01*
X208946703Y-59294614D01*
X209037140Y-59500792D01*
X209160276Y-59689265D01*
X209160284Y-59689276D01*
X209300111Y-59841166D01*
X209312760Y-59854906D01*
X209490424Y-59993189D01*
X209490429Y-59993191D01*
X209490431Y-59993193D01*
X209526930Y-60012946D01*
X209576520Y-60062165D01*
X209591628Y-60130382D01*
X209567457Y-60195937D01*
X209526930Y-60231054D01*
X209490431Y-60250806D01*
X209490422Y-60250812D01*
X209312761Y-60389092D01*
X209312756Y-60389097D01*
X209160284Y-60554723D01*
X209160276Y-60554734D01*
X209037140Y-60743207D01*
X208946703Y-60949385D01*
X208891436Y-61167628D01*
X208891434Y-61167640D01*
X208872844Y-61391994D01*
X208872844Y-61392005D01*
X208891434Y-61616359D01*
X208891436Y-61616371D01*
X208946703Y-61834614D01*
X209037140Y-62040792D01*
X209160276Y-62229265D01*
X209160284Y-62229276D01*
X209296613Y-62377366D01*
X209312760Y-62394906D01*
X209490424Y-62533189D01*
X209526930Y-62552945D01*
X209576519Y-62602162D01*
X209591629Y-62670378D01*
X209567459Y-62735934D01*
X209526932Y-62771052D01*
X209490432Y-62790805D01*
X209490422Y-62790812D01*
X209312759Y-62929094D01*
X209262691Y-62983483D01*
X209202804Y-63019474D01*
X209171461Y-63023500D01*
X207615675Y-63023500D01*
X207548636Y-63003815D01*
X207527994Y-62987181D01*
X203315865Y-58775052D01*
X203303228Y-58760257D01*
X203294866Y-58748747D01*
X203242777Y-58701846D01*
X203240438Y-58699625D01*
X203224744Y-58683931D01*
X203224744Y-58683930D01*
X203224741Y-58683928D01*
X203207476Y-58669946D01*
X203205017Y-58667846D01*
X203152947Y-58620962D01*
X203152944Y-58620960D01*
X203140610Y-58613838D01*
X203124590Y-58602827D01*
X203113533Y-58593873D01*
X203113531Y-58593872D01*
X203113530Y-58593871D01*
X203051087Y-58562055D01*
X203048262Y-58560521D01*
X202987556Y-58525473D01*
X202987557Y-58525473D01*
X202987553Y-58525471D01*
X202987550Y-58525470D01*
X202974018Y-58521073D01*
X202956051Y-58513631D01*
X202943373Y-58507171D01*
X202910200Y-58498282D01*
X202875663Y-58489028D01*
X202872604Y-58488121D01*
X202834330Y-58475686D01*
X202805927Y-58466457D01*
X202791767Y-58464969D01*
X202772644Y-58461424D01*
X202766579Y-58459799D01*
X202758901Y-58457742D01*
X202688925Y-58454074D01*
X202685693Y-58453820D01*
X202680776Y-58453303D01*
X202663610Y-58451500D01*
X202663603Y-58451500D01*
X202641404Y-58451500D01*
X202638160Y-58451415D01*
X202568190Y-58447748D01*
X202568189Y-58447748D01*
X202568188Y-58447748D01*
X202554142Y-58449973D01*
X202534743Y-58451500D01*
X191845675Y-58451500D01*
X191778636Y-58431815D01*
X191757994Y-58415181D01*
X188742994Y-55400181D01*
X188709509Y-55338858D01*
X188714493Y-55269166D01*
X188756365Y-55213233D01*
X188821829Y-55188816D01*
X188830675Y-55188500D01*
X195691990Y-55188500D01*
X195759029Y-55208185D01*
X195804371Y-55260094D01*
X195890477Y-55444749D01*
X196021802Y-55632300D01*
X196183700Y-55794198D01*
X196371251Y-55925523D01*
X196496091Y-55983736D01*
X196578750Y-56022281D01*
X196578752Y-56022281D01*
X196578757Y-56022284D01*
X196799913Y-56081543D01*
X196962832Y-56095796D01*
X197027998Y-56101498D01*
X197028000Y-56101498D01*
X197028002Y-56101498D01*
X197085021Y-56096509D01*
X197256087Y-56081543D01*
X197477243Y-56022284D01*
X197684749Y-55925523D01*
X197872300Y-55794198D01*
X198034198Y-55632300D01*
X198165523Y-55444749D01*
X198262284Y-55237243D01*
X198321543Y-55016087D01*
X198341498Y-54788000D01*
X198340360Y-54774998D01*
X198328377Y-54638024D01*
X198321543Y-54559913D01*
X198262284Y-54338757D01*
X198257089Y-54327617D01*
X198204396Y-54214616D01*
X198165523Y-54131251D01*
X198034198Y-53943700D01*
X197872300Y-53781802D01*
X197684749Y-53650477D01*
X197652751Y-53635556D01*
X197477249Y-53553718D01*
X197477238Y-53553714D01*
X197256089Y-53494457D01*
X197256081Y-53494456D01*
X197028002Y-53474502D01*
X197027996Y-53474502D01*
X196992120Y-53477640D01*
X196923620Y-53463872D01*
X196919316Y-53461500D01*
X196891555Y-53445472D01*
X196891550Y-53445470D01*
X196878018Y-53441073D01*
X196860051Y-53433631D01*
X196847373Y-53427171D01*
X196814200Y-53418282D01*
X196779663Y-53409028D01*
X196776604Y-53408121D01*
X196743540Y-53397378D01*
X196709927Y-53386457D01*
X196695767Y-53384969D01*
X196676644Y-53381424D01*
X196670579Y-53379799D01*
X196662901Y-53377742D01*
X196592925Y-53374074D01*
X196589693Y-53373820D01*
X196584776Y-53373303D01*
X196567610Y-53371500D01*
X196567603Y-53371500D01*
X196545404Y-53371500D01*
X196542160Y-53371415D01*
X196472190Y-53367748D01*
X196472189Y-53367748D01*
X196472188Y-53367748D01*
X196458142Y-53369973D01*
X196438743Y-53371500D01*
X170062500Y-53371500D01*
X169995461Y-53351815D01*
X169949706Y-53299011D01*
X169938500Y-53247500D01*
X169938500Y-53132362D01*
X169938499Y-53132345D01*
X169934590Y-53095993D01*
X169931989Y-53071799D01*
X169880889Y-52934796D01*
X169793261Y-52817739D01*
X169676204Y-52730111D01*
X169676202Y-52730110D01*
X169676204Y-52730110D01*
X169546619Y-52681777D01*
X169490685Y-52639906D01*
X169466269Y-52574441D01*
X169481121Y-52506168D01*
X169502272Y-52477914D01*
X169618108Y-52362078D01*
X169753600Y-52168578D01*
X169853429Y-51954492D01*
X169853432Y-51954486D01*
X169910636Y-51741000D01*
X169193347Y-51741000D01*
X169126308Y-51721315D01*
X169080553Y-51668511D01*
X169070609Y-51599353D01*
X169074369Y-51582067D01*
X169078166Y-51569134D01*
X169080000Y-51562889D01*
X169080000Y-51419111D01*
X169079369Y-51416963D01*
X169074369Y-51399933D01*
X169074370Y-51330064D01*
X169112145Y-51271286D01*
X169175701Y-51242262D01*
X169193347Y-51241000D01*
X169910636Y-51241000D01*
X169910635Y-51240999D01*
X169853432Y-51027513D01*
X169853429Y-51027507D01*
X169753600Y-50813422D01*
X169753599Y-50813420D01*
X169618113Y-50619926D01*
X169618108Y-50619920D01*
X169451082Y-50452894D01*
X169257578Y-50317399D01*
X169043492Y-50217570D01*
X169043486Y-50217567D01*
X168830000Y-50160364D01*
X168830000Y-50878698D01*
X168810315Y-50945737D01*
X168757511Y-50991492D01*
X168688355Y-51001436D01*
X168615766Y-50991000D01*
X168615763Y-50991000D01*
X168544237Y-50991000D01*
X168544233Y-50991000D01*
X168471645Y-51001436D01*
X168402487Y-50991492D01*
X168349684Y-50945736D01*
X168330000Y-50878698D01*
X168330000Y-50160364D01*
X168329999Y-50160364D01*
X168116513Y-50217567D01*
X168116507Y-50217570D01*
X167902422Y-50317399D01*
X167902420Y-50317400D01*
X167708926Y-50452886D01*
X167708920Y-50452891D01*
X167541891Y-50619920D01*
X167541886Y-50619926D01*
X167406400Y-50813420D01*
X167406399Y-50813422D01*
X167306570Y-51027507D01*
X167306567Y-51027513D01*
X167249364Y-51240999D01*
X167249364Y-51241000D01*
X167966653Y-51241000D01*
X168033692Y-51260685D01*
X168079447Y-51313489D01*
X168089391Y-51382647D01*
X168085631Y-51399933D01*
X168080631Y-51416963D01*
X168080000Y-51419111D01*
X168080000Y-51562889D01*
X168081834Y-51569134D01*
X168085631Y-51582067D01*
X168085630Y-51651936D01*
X168047855Y-51710714D01*
X167984299Y-51739738D01*
X167966653Y-51741000D01*
X167249364Y-51741000D01*
X167306567Y-51954486D01*
X167306570Y-51954492D01*
X167406399Y-52168578D01*
X167541894Y-52362082D01*
X167657727Y-52477915D01*
X167691212Y-52539238D01*
X167686228Y-52608930D01*
X167644356Y-52664863D01*
X167613381Y-52681777D01*
X167483795Y-52730111D01*
X167366739Y-52817739D01*
X167279111Y-52934795D01*
X167228011Y-53071795D01*
X167228011Y-53071797D01*
X167221500Y-53132345D01*
X167221500Y-53247500D01*
X167201815Y-53314539D01*
X167149011Y-53360294D01*
X167097500Y-53371500D01*
X162403675Y-53371500D01*
X162336636Y-53351815D01*
X162315994Y-53335181D01*
X159364819Y-50384005D01*
X159331334Y-50322682D01*
X159328500Y-50296324D01*
X159328500Y-50267302D01*
X159348185Y-50200263D01*
X159361264Y-50183326D01*
X159495722Y-50037268D01*
X159586193Y-49898790D01*
X159639338Y-49853437D01*
X159708569Y-49844013D01*
X159771905Y-49873515D01*
X159793804Y-49898787D01*
X159884278Y-50037268D01*
X159884283Y-50037273D01*
X159884284Y-50037276D01*
X160034327Y-50200263D01*
X160036760Y-50202906D01*
X160214424Y-50341189D01*
X160214425Y-50341189D01*
X160214427Y-50341191D01*
X160226431Y-50347687D01*
X160412426Y-50448342D01*
X160625365Y-50521444D01*
X160847431Y-50558500D01*
X161072569Y-50558500D01*
X161294635Y-50521444D01*
X161507574Y-50448342D01*
X161705576Y-50341189D01*
X161883240Y-50202906D01*
X162004594Y-50071082D01*
X162035715Y-50037276D01*
X162035715Y-50037275D01*
X162035722Y-50037268D01*
X162126193Y-49898790D01*
X162179338Y-49853437D01*
X162248569Y-49844013D01*
X162311905Y-49873515D01*
X162333804Y-49898787D01*
X162424278Y-50037268D01*
X162424283Y-50037273D01*
X162424284Y-50037276D01*
X162574327Y-50200263D01*
X162576760Y-50202906D01*
X162754424Y-50341189D01*
X162754425Y-50341189D01*
X162754427Y-50341191D01*
X162766431Y-50347687D01*
X162952426Y-50448342D01*
X163165365Y-50521444D01*
X163387431Y-50558500D01*
X163612569Y-50558500D01*
X163834635Y-50521444D01*
X164047574Y-50448342D01*
X164245576Y-50341189D01*
X164423240Y-50202906D01*
X164544594Y-50071082D01*
X164575715Y-50037276D01*
X164575719Y-50037271D01*
X164575722Y-50037268D01*
X164698860Y-49848791D01*
X164789296Y-49642616D01*
X164844564Y-49424368D01*
X164847896Y-49384158D01*
X164863156Y-49200005D01*
X164863156Y-49199994D01*
X164844565Y-48975640D01*
X164844563Y-48975628D01*
X164789296Y-48757385D01*
X164768702Y-48710436D01*
X164698860Y-48551209D01*
X164682706Y-48526484D01*
X164575723Y-48362734D01*
X164575715Y-48362723D01*
X164423243Y-48197097D01*
X164423238Y-48197092D01*
X164292189Y-48095092D01*
X164245576Y-48058811D01*
X164245575Y-48058810D01*
X164245572Y-48058808D01*
X164047580Y-47951661D01*
X164047577Y-47951659D01*
X164047574Y-47951658D01*
X164047571Y-47951657D01*
X164047569Y-47951656D01*
X163834637Y-47878556D01*
X163612569Y-47841500D01*
X163387431Y-47841500D01*
X163165362Y-47878556D01*
X162952430Y-47951656D01*
X162952419Y-47951661D01*
X162754427Y-48058808D01*
X162754422Y-48058812D01*
X162576761Y-48197092D01*
X162576756Y-48197097D01*
X162424284Y-48362723D01*
X162424276Y-48362734D01*
X162333808Y-48501206D01*
X162280662Y-48546562D01*
X162211431Y-48555986D01*
X162148095Y-48526484D01*
X162126192Y-48501206D01*
X162035723Y-48362734D01*
X162035715Y-48362723D01*
X161883243Y-48197097D01*
X161883238Y-48197092D01*
X161752189Y-48095092D01*
X161705576Y-48058811D01*
X161705575Y-48058810D01*
X161705572Y-48058808D01*
X161507580Y-47951661D01*
X161507577Y-47951659D01*
X161507574Y-47951658D01*
X161507571Y-47951657D01*
X161507569Y-47951656D01*
X161294637Y-47878556D01*
X161072569Y-47841500D01*
X160847431Y-47841500D01*
X160625362Y-47878556D01*
X160412430Y-47951656D01*
X160412419Y-47951661D01*
X160214427Y-48058808D01*
X160214422Y-48058812D01*
X160036761Y-48197092D01*
X160036756Y-48197097D01*
X159884284Y-48362723D01*
X159884276Y-48362734D01*
X159793808Y-48501206D01*
X159740662Y-48546562D01*
X159671431Y-48555986D01*
X159608095Y-48526484D01*
X159586192Y-48501206D01*
X159495723Y-48362734D01*
X159495715Y-48362723D01*
X159343243Y-48197097D01*
X159343238Y-48197092D01*
X159212189Y-48095092D01*
X159165576Y-48058811D01*
X159165575Y-48058810D01*
X159165572Y-48058808D01*
X158967580Y-47951661D01*
X158967577Y-47951659D01*
X158967574Y-47951658D01*
X158967571Y-47951657D01*
X158967569Y-47951656D01*
X158754637Y-47878556D01*
X158532569Y-47841500D01*
X158307431Y-47841500D01*
X158085362Y-47878556D01*
X157872430Y-47951656D01*
X157872419Y-47951661D01*
X157674427Y-48058808D01*
X157674422Y-48058812D01*
X157496761Y-48197092D01*
X157496756Y-48197097D01*
X157344284Y-48362723D01*
X157344276Y-48362734D01*
X157253808Y-48501206D01*
X157200662Y-48546562D01*
X157131431Y-48555986D01*
X157068095Y-48526484D01*
X157046192Y-48501206D01*
X156955723Y-48362734D01*
X156955715Y-48362723D01*
X156803243Y-48197097D01*
X156803238Y-48197092D01*
X156672189Y-48095092D01*
X156625576Y-48058811D01*
X156625575Y-48058810D01*
X156625572Y-48058808D01*
X156427580Y-47951661D01*
X156427577Y-47951659D01*
X156427574Y-47951658D01*
X156427571Y-47951657D01*
X156427569Y-47951656D01*
X156214637Y-47878556D01*
X155992569Y-47841500D01*
X155767431Y-47841500D01*
X155545362Y-47878556D01*
X155332430Y-47951656D01*
X155332419Y-47951661D01*
X155134427Y-48058808D01*
X155134422Y-48058812D01*
X154956761Y-48197092D01*
X154956756Y-48197097D01*
X154804284Y-48362723D01*
X154804276Y-48362734D01*
X154713808Y-48501206D01*
X154660662Y-48546562D01*
X154591431Y-48555986D01*
X154528095Y-48526484D01*
X154506192Y-48501206D01*
X154415723Y-48362734D01*
X154415715Y-48362723D01*
X154263243Y-48197097D01*
X154263238Y-48197092D01*
X154132189Y-48095092D01*
X154085576Y-48058811D01*
X154085575Y-48058810D01*
X154085572Y-48058808D01*
X153887580Y-47951661D01*
X153887577Y-47951659D01*
X153887574Y-47951658D01*
X153887571Y-47951657D01*
X153887569Y-47951656D01*
X153674637Y-47878556D01*
X153452569Y-47841500D01*
X153227431Y-47841500D01*
X153005362Y-47878556D01*
X152792430Y-47951656D01*
X152792419Y-47951661D01*
X152594427Y-48058808D01*
X152594422Y-48058812D01*
X152416761Y-48197092D01*
X152416756Y-48197097D01*
X152264284Y-48362723D01*
X152264276Y-48362734D01*
X152173808Y-48501206D01*
X152120662Y-48546562D01*
X152051431Y-48555986D01*
X151988095Y-48526484D01*
X151966192Y-48501206D01*
X151875723Y-48362734D01*
X151875715Y-48362723D01*
X151723243Y-48197097D01*
X151723238Y-48197092D01*
X151592189Y-48095092D01*
X151545576Y-48058811D01*
X151545575Y-48058810D01*
X151545572Y-48058808D01*
X151347580Y-47951661D01*
X151347577Y-47951659D01*
X151347574Y-47951658D01*
X151347571Y-47951657D01*
X151347569Y-47951656D01*
X151134637Y-47878556D01*
X150912569Y-47841500D01*
X150687431Y-47841500D01*
X150465362Y-47878556D01*
X150252430Y-47951656D01*
X150252419Y-47951661D01*
X150054427Y-48058808D01*
X150054422Y-48058812D01*
X149876761Y-48197092D01*
X149876756Y-48197097D01*
X149724284Y-48362723D01*
X149724276Y-48362734D01*
X149633808Y-48501206D01*
X149580662Y-48546562D01*
X149511431Y-48555986D01*
X149448095Y-48526484D01*
X149426192Y-48501206D01*
X149335723Y-48362734D01*
X149335715Y-48362723D01*
X149183243Y-48197097D01*
X149183238Y-48197092D01*
X149052189Y-48095092D01*
X149005576Y-48058811D01*
X149005575Y-48058810D01*
X149005572Y-48058808D01*
X148807580Y-47951661D01*
X148807577Y-47951659D01*
X148807574Y-47951658D01*
X148807571Y-47951657D01*
X148807569Y-47951656D01*
X148594637Y-47878556D01*
X148372569Y-47841500D01*
X148147431Y-47841500D01*
X147925362Y-47878556D01*
X147712430Y-47951656D01*
X147712419Y-47951661D01*
X147514427Y-48058808D01*
X147514422Y-48058812D01*
X147336761Y-48197092D01*
X147273548Y-48265760D01*
X147213661Y-48301750D01*
X147143823Y-48299649D01*
X147086207Y-48260124D01*
X147066138Y-48225110D01*
X147020889Y-48103796D01*
X147014373Y-48095092D01*
X146933261Y-47986739D01*
X146816204Y-47899111D01*
X146679203Y-47848011D01*
X146618654Y-47841500D01*
X146618638Y-47841500D01*
X144821362Y-47841500D01*
X144821345Y-47841500D01*
X144760797Y-47848011D01*
X144760795Y-47848011D01*
X144623795Y-47899111D01*
X144506739Y-47986739D01*
X144419111Y-48103795D01*
X144368011Y-48240795D01*
X144368011Y-48240797D01*
X144361500Y-48301345D01*
X144361500Y-49222325D01*
X144341815Y-49289364D01*
X144325181Y-49310006D01*
X142840006Y-50795181D01*
X142778683Y-50828666D01*
X142752325Y-50831500D01*
X142116674Y-50831500D01*
X142049635Y-50811815D01*
X142003880Y-50759011D01*
X141993936Y-50689853D01*
X142022961Y-50626297D01*
X142028972Y-50619839D01*
X142184039Y-50464773D01*
X142212693Y-50443406D01*
X142401576Y-50341189D01*
X142579240Y-50202906D01*
X142700594Y-50071082D01*
X142731715Y-50037276D01*
X142731719Y-50037271D01*
X142731722Y-50037268D01*
X142854860Y-49848791D01*
X142945296Y-49642616D01*
X143000564Y-49424368D01*
X143003896Y-49384158D01*
X143019156Y-49200005D01*
X143019156Y-49199994D01*
X143000565Y-48975640D01*
X143000563Y-48975628D01*
X142945296Y-48757385D01*
X142924702Y-48710436D01*
X142854860Y-48551209D01*
X142838706Y-48526484D01*
X142731723Y-48362734D01*
X142731715Y-48362723D01*
X142579243Y-48197097D01*
X142579238Y-48197092D01*
X142448189Y-48095092D01*
X142401576Y-48058811D01*
X142401575Y-48058810D01*
X142401572Y-48058808D01*
X142203580Y-47951661D01*
X142203577Y-47951659D01*
X142203574Y-47951658D01*
X142203571Y-47951657D01*
X142203569Y-47951656D01*
X141990637Y-47878556D01*
X141768569Y-47841500D01*
X141543431Y-47841500D01*
X141321362Y-47878556D01*
X141108430Y-47951656D01*
X141108419Y-47951661D01*
X140910427Y-48058808D01*
X140910422Y-48058812D01*
X140732761Y-48197092D01*
X140732756Y-48197097D01*
X140580284Y-48362723D01*
X140580276Y-48362734D01*
X140489808Y-48501206D01*
X140436662Y-48546562D01*
X140367431Y-48555986D01*
X140304095Y-48526484D01*
X140282192Y-48501206D01*
X140191723Y-48362734D01*
X140191715Y-48362723D01*
X140039243Y-48197097D01*
X140039238Y-48197092D01*
X139908189Y-48095092D01*
X139861576Y-48058811D01*
X139861575Y-48058810D01*
X139861572Y-48058808D01*
X139663580Y-47951661D01*
X139663577Y-47951659D01*
X139663574Y-47951658D01*
X139663571Y-47951657D01*
X139663569Y-47951656D01*
X139450637Y-47878556D01*
X139228569Y-47841500D01*
X139003431Y-47841500D01*
X138781362Y-47878556D01*
X138568430Y-47951656D01*
X138568419Y-47951661D01*
X138370427Y-48058808D01*
X138370422Y-48058812D01*
X138192761Y-48197092D01*
X138192756Y-48197097D01*
X138040284Y-48362723D01*
X138040276Y-48362734D01*
X137949808Y-48501206D01*
X137896662Y-48546562D01*
X137827431Y-48555986D01*
X137764095Y-48526484D01*
X137742192Y-48501206D01*
X137651723Y-48362734D01*
X137651715Y-48362723D01*
X137499243Y-48197097D01*
X137499238Y-48197092D01*
X137368189Y-48095092D01*
X137321576Y-48058811D01*
X137321575Y-48058810D01*
X137321572Y-48058808D01*
X137123580Y-47951661D01*
X137123577Y-47951659D01*
X137123574Y-47951658D01*
X137123571Y-47951657D01*
X137123569Y-47951656D01*
X136910637Y-47878556D01*
X136688569Y-47841500D01*
X136463431Y-47841500D01*
X136241362Y-47878556D01*
X136028430Y-47951656D01*
X136028419Y-47951661D01*
X135830427Y-48058808D01*
X135830422Y-48058812D01*
X135652761Y-48197092D01*
X135652756Y-48197097D01*
X135500284Y-48362723D01*
X135500276Y-48362734D01*
X135409808Y-48501206D01*
X135356662Y-48546562D01*
X135287431Y-48555986D01*
X135224095Y-48526484D01*
X135202192Y-48501206D01*
X135111723Y-48362734D01*
X135111715Y-48362723D01*
X134977271Y-48216680D01*
X134946348Y-48154026D01*
X134944500Y-48132697D01*
X134944500Y-48103674D01*
X134964185Y-48036635D01*
X134980814Y-48015998D01*
X135899993Y-47096819D01*
X135961317Y-47063334D01*
X135987675Y-47060500D01*
X167644325Y-47060500D01*
X167711364Y-47080185D01*
G37*
%TD.AperFunction*%
%TA.AperFunction,Conductor*%
G36*
X169235364Y-45556185D02*
G01*
X169256006Y-45572819D01*
X172960133Y-49276946D01*
X172972768Y-49291739D01*
X172981132Y-49303251D01*
X172981134Y-49303253D01*
X173033204Y-49350137D01*
X173035560Y-49352373D01*
X173051262Y-49368075D01*
X173068516Y-49382048D01*
X173070982Y-49384154D01*
X173099515Y-49409844D01*
X173123056Y-49431040D01*
X173123058Y-49431041D01*
X173135374Y-49438152D01*
X173151405Y-49449169D01*
X173162471Y-49458130D01*
X173224917Y-49489948D01*
X173227761Y-49491492D01*
X173288444Y-49526527D01*
X173301976Y-49530923D01*
X173319949Y-49538368D01*
X173332630Y-49544830D01*
X173400338Y-49562971D01*
X173403417Y-49563884D01*
X173470072Y-49585542D01*
X173481642Y-49586757D01*
X173484222Y-49587029D01*
X173503360Y-49590576D01*
X173517097Y-49594257D01*
X173517096Y-49594257D01*
X173522481Y-49594539D01*
X173587084Y-49597924D01*
X173590294Y-49598177D01*
X173612390Y-49600500D01*
X173634596Y-49600500D01*
X173637839Y-49600584D01*
X173707810Y-49604252D01*
X173721857Y-49602027D01*
X173741257Y-49600500D01*
X201518743Y-49600500D01*
X201538142Y-49602027D01*
X201552190Y-49604252D01*
X201622160Y-49600584D01*
X201625404Y-49600500D01*
X201647609Y-49600500D01*
X201647610Y-49600500D01*
X201669710Y-49598177D01*
X201672911Y-49597925D01*
X201742903Y-49594257D01*
X201756648Y-49590573D01*
X201775769Y-49587029D01*
X201789928Y-49585542D01*
X201856618Y-49563872D01*
X201859669Y-49562969D01*
X201927370Y-49544829D01*
X201940040Y-49538372D01*
X201958017Y-49530925D01*
X201971556Y-49526527D01*
X202032270Y-49491472D01*
X202035051Y-49489961D01*
X202097530Y-49458129D01*
X202108599Y-49449165D01*
X202124618Y-49438156D01*
X202136944Y-49431040D01*
X202189058Y-49384115D01*
X202191449Y-49382074D01*
X202208741Y-49368072D01*
X202224465Y-49352346D01*
X202226795Y-49350137D01*
X202278866Y-49303253D01*
X202287231Y-49291738D01*
X202299860Y-49276951D01*
X204479993Y-47096819D01*
X204541317Y-47063334D01*
X204567675Y-47060500D01*
X209171461Y-47060500D01*
X209238500Y-47080185D01*
X209262689Y-47100516D01*
X209312760Y-47154906D01*
X209490424Y-47293189D01*
X209533693Y-47316605D01*
X209533695Y-47316606D01*
X209583286Y-47365825D01*
X209598394Y-47434042D01*
X209574224Y-47499597D01*
X209545802Y-47527236D01*
X209364922Y-47653890D01*
X209364920Y-47653891D01*
X209197891Y-47820920D01*
X209197886Y-47820926D01*
X209062400Y-48014420D01*
X209062399Y-48014422D01*
X208962570Y-48228507D01*
X208962567Y-48228513D01*
X208905364Y-48441999D01*
X208905364Y-48442000D01*
X209622653Y-48442000D01*
X209689692Y-48461685D01*
X209735447Y-48514489D01*
X209745391Y-48583647D01*
X209741631Y-48600933D01*
X209736000Y-48620111D01*
X209736000Y-48763888D01*
X209741631Y-48783067D01*
X209741630Y-48852936D01*
X209703855Y-48911714D01*
X209640299Y-48940738D01*
X209622653Y-48942000D01*
X208905364Y-48942000D01*
X208962567Y-49155486D01*
X208962570Y-49155492D01*
X209062399Y-49369578D01*
X209197894Y-49563082D01*
X209364917Y-49730105D01*
X209545802Y-49856763D01*
X209589427Y-49911340D01*
X209596619Y-49980839D01*
X209565097Y-50043193D01*
X209533697Y-50067392D01*
X209490427Y-50090809D01*
X209490422Y-50090812D01*
X209312759Y-50229094D01*
X209262691Y-50283483D01*
X209202804Y-50319474D01*
X209171461Y-50323500D01*
X173579675Y-50323500D01*
X173512636Y-50303815D01*
X173491994Y-50287181D01*
X168952994Y-45748181D01*
X168919509Y-45686858D01*
X168924493Y-45617166D01*
X168966365Y-45561233D01*
X169031829Y-45536816D01*
X169040675Y-45536500D01*
X169168325Y-45536500D01*
X169235364Y-45556185D01*
G37*
%TD.AperFunction*%
%TD*%
M02*
